%TF.GenerationSoftware,KiCad,Pcbnew,7.0.5*%
%TF.CreationDate,2024-02-11T15:40:37+01:00*%
%TF.ProjectId,exbike-usb-hw,65786269-6b65-42d7-9573-622d68772e6b,rev?*%
%TF.SameCoordinates,Original*%
%TF.FileFunction,Drillmap*%
%TF.FilePolarity,Positive*%
%FSLAX45Y45*%
G04 Gerber Fmt 4.5, Leading zero omitted, Abs format (unit mm)*
G04 Created by KiCad (PCBNEW 7.0.5) date 2024-02-11 15:40:37*
%MOMM*%
%LPD*%
G01*
G04 APERTURE LIST*
%ADD10C,0.100000*%
%ADD11C,0.200000*%
%ADD12C,0.080000*%
%ADD13C,0.095000*%
%ADD14C,0.130000*%
%ADD15C,0.230000*%
G04 APERTURE END LIST*
D10*
X5194300Y76200D02*
X5194300Y1905000D01*
X1892300Y76200D02*
X1892300Y330200D01*
X5194300Y1905000D02*
X63500Y1905000D01*
X1892300Y76200D02*
X5194300Y76200D01*
X63500Y76200D02*
X1638300Y76200D01*
X63500Y1905000D02*
X63500Y76200D01*
X1892300Y330200D02*
X1638300Y330200D01*
X1638300Y330200D02*
X1638300Y76200D01*
D11*
D12*
X1922150Y1366200D02*
X2002150Y1286200D01*
X2002150Y1366200D02*
X1922150Y1286200D01*
X1922150Y878200D02*
X2002150Y798200D01*
X2002150Y878200D02*
X1922150Y798200D01*
D13*
X4334450Y1137000D02*
G75*
G03*
X4334450Y1137000I-47500J0D01*
G01*
X4334450Y887000D02*
G75*
G03*
X4334450Y887000I-47500J0D01*
G01*
X4534450Y1137000D02*
G75*
G03*
X4534450Y1137000I-47500J0D01*
G01*
X4534450Y887000D02*
G75*
G03*
X4534450Y887000I-47500J0D01*
G01*
D10*
X2089150Y329400D02*
X2089150Y229400D01*
X2039150Y279400D02*
X2139150Y279400D01*
X2343150Y329400D02*
X2343150Y229400D01*
X2293150Y279400D02*
X2393150Y279400D01*
X2597150Y329400D02*
X2597150Y229400D01*
X2547150Y279400D02*
X2647150Y279400D01*
X2851150Y329400D02*
X2851150Y229400D01*
X2801150Y279400D02*
X2901150Y279400D01*
X3105150Y329400D02*
X3105150Y229400D01*
X3055150Y279400D02*
X3155150Y279400D01*
X3359150Y329400D02*
X3359150Y229400D01*
X3309150Y279400D02*
X3409150Y279400D01*
D14*
X318462Y966038D02*
X318462Y1057962D01*
X226538Y1057962D01*
X226538Y966038D01*
X318462Y966038D01*
X708462Y1426038D02*
X708462Y1517962D01*
X616538Y1517962D01*
X616538Y1426038D01*
X708462Y1426038D01*
X998462Y716038D02*
X998462Y807962D01*
X906538Y807962D01*
X906538Y716038D01*
X998462Y716038D01*
X1118462Y446038D02*
X1118462Y537962D01*
X1026538Y537962D01*
X1026538Y446038D01*
X1118462Y446038D01*
X1438462Y1376038D02*
X1438462Y1467962D01*
X1346538Y1467962D01*
X1346538Y1376038D01*
X1438462Y1376038D01*
D15*
X4772950Y1497000D02*
X4887950Y1612000D01*
X4772950Y1727000D01*
X4657950Y1612000D01*
X4772950Y1497000D01*
X4772950Y297000D02*
X4887950Y412000D01*
X4772950Y527000D01*
X4657950Y412000D01*
X4772950Y297000D01*
D11*
X319277Y-240284D02*
X319277Y-40284D01*
X319277Y-40284D02*
X366896Y-40284D01*
X366896Y-40284D02*
X395467Y-49808D01*
X395467Y-49808D02*
X414515Y-68855D01*
X414515Y-68855D02*
X424039Y-87903D01*
X424039Y-87903D02*
X433562Y-125998D01*
X433562Y-125998D02*
X433562Y-154570D01*
X433562Y-154570D02*
X424039Y-192665D01*
X424039Y-192665D02*
X414515Y-211712D01*
X414515Y-211712D02*
X395467Y-230760D01*
X395467Y-230760D02*
X366896Y-240284D01*
X366896Y-240284D02*
X319277Y-240284D01*
X519277Y-240284D02*
X519277Y-106950D01*
X519277Y-145046D02*
X528801Y-125998D01*
X528801Y-125998D02*
X538324Y-116474D01*
X538324Y-116474D02*
X557372Y-106950D01*
X557372Y-106950D02*
X576420Y-106950D01*
X643086Y-240284D02*
X643086Y-106950D01*
X643086Y-40284D02*
X633563Y-49808D01*
X633563Y-49808D02*
X643086Y-59331D01*
X643086Y-59331D02*
X652610Y-49808D01*
X652610Y-49808D02*
X643086Y-40284D01*
X643086Y-40284D02*
X643086Y-59331D01*
X766896Y-240284D02*
X747848Y-230760D01*
X747848Y-230760D02*
X738324Y-211712D01*
X738324Y-211712D02*
X738324Y-40284D01*
X871658Y-240284D02*
X852610Y-230760D01*
X852610Y-230760D02*
X843086Y-211712D01*
X843086Y-211712D02*
X843086Y-40284D01*
X1100229Y-240284D02*
X1100229Y-40284D01*
X1100229Y-40284D02*
X1166896Y-183141D01*
X1166896Y-183141D02*
X1233563Y-40284D01*
X1233563Y-40284D02*
X1233563Y-240284D01*
X1414515Y-240284D02*
X1414515Y-135522D01*
X1414515Y-135522D02*
X1404991Y-116474D01*
X1404991Y-116474D02*
X1385944Y-106950D01*
X1385944Y-106950D02*
X1347848Y-106950D01*
X1347848Y-106950D02*
X1328801Y-116474D01*
X1414515Y-230760D02*
X1395467Y-240284D01*
X1395467Y-240284D02*
X1347848Y-240284D01*
X1347848Y-240284D02*
X1328801Y-230760D01*
X1328801Y-230760D02*
X1319277Y-211712D01*
X1319277Y-211712D02*
X1319277Y-192665D01*
X1319277Y-192665D02*
X1328801Y-173617D01*
X1328801Y-173617D02*
X1347848Y-164093D01*
X1347848Y-164093D02*
X1395467Y-164093D01*
X1395467Y-164093D02*
X1414515Y-154570D01*
X1509753Y-106950D02*
X1509753Y-306950D01*
X1509753Y-116474D02*
X1528801Y-106950D01*
X1528801Y-106950D02*
X1566896Y-106950D01*
X1566896Y-106950D02*
X1585943Y-116474D01*
X1585943Y-116474D02*
X1595467Y-125998D01*
X1595467Y-125998D02*
X1604991Y-145046D01*
X1604991Y-145046D02*
X1604991Y-202188D01*
X1604991Y-202188D02*
X1595467Y-221236D01*
X1595467Y-221236D02*
X1585943Y-230760D01*
X1585943Y-230760D02*
X1566896Y-240284D01*
X1566896Y-240284D02*
X1528801Y-240284D01*
X1528801Y-240284D02*
X1509753Y-230760D01*
X1690705Y-221236D02*
X1700229Y-230760D01*
X1700229Y-230760D02*
X1690705Y-240284D01*
X1690705Y-240284D02*
X1681182Y-230760D01*
X1681182Y-230760D02*
X1690705Y-221236D01*
X1690705Y-221236D02*
X1690705Y-240284D01*
X1690705Y-116474D02*
X1700229Y-125998D01*
X1700229Y-125998D02*
X1690705Y-135522D01*
X1690705Y-135522D02*
X1681182Y-125998D01*
X1681182Y-125998D02*
X1690705Y-116474D01*
X1690705Y-116474D02*
X1690705Y-135522D01*
D12*
X-21500Y-528800D02*
X58500Y-608800D01*
X58500Y-528800D02*
X-21500Y-608800D01*
D11*
X357372Y-460284D02*
X376420Y-460284D01*
X376420Y-460284D02*
X395467Y-469808D01*
X395467Y-469808D02*
X404991Y-479331D01*
X404991Y-479331D02*
X414515Y-498379D01*
X414515Y-498379D02*
X424039Y-536474D01*
X424039Y-536474D02*
X424039Y-584093D01*
X424039Y-584093D02*
X414515Y-622189D01*
X414515Y-622189D02*
X404991Y-641236D01*
X404991Y-641236D02*
X395467Y-650760D01*
X395467Y-650760D02*
X376420Y-660284D01*
X376420Y-660284D02*
X357372Y-660284D01*
X357372Y-660284D02*
X338324Y-650760D01*
X338324Y-650760D02*
X328801Y-641236D01*
X328801Y-641236D02*
X319277Y-622189D01*
X319277Y-622189D02*
X309753Y-584093D01*
X309753Y-584093D02*
X309753Y-536474D01*
X309753Y-536474D02*
X319277Y-498379D01*
X319277Y-498379D02*
X328801Y-479331D01*
X328801Y-479331D02*
X338324Y-469808D01*
X338324Y-469808D02*
X357372Y-460284D01*
X509753Y-641236D02*
X519277Y-650760D01*
X519277Y-650760D02*
X509753Y-660284D01*
X509753Y-660284D02*
X500229Y-650760D01*
X500229Y-650760D02*
X509753Y-641236D01*
X509753Y-641236D02*
X509753Y-660284D01*
X633563Y-545998D02*
X614515Y-536474D01*
X614515Y-536474D02*
X604991Y-526950D01*
X604991Y-526950D02*
X595467Y-507903D01*
X595467Y-507903D02*
X595467Y-498379D01*
X595467Y-498379D02*
X604991Y-479331D01*
X604991Y-479331D02*
X614515Y-469808D01*
X614515Y-469808D02*
X633563Y-460284D01*
X633563Y-460284D02*
X671658Y-460284D01*
X671658Y-460284D02*
X690705Y-469808D01*
X690705Y-469808D02*
X700229Y-479331D01*
X700229Y-479331D02*
X709753Y-498379D01*
X709753Y-498379D02*
X709753Y-507903D01*
X709753Y-507903D02*
X700229Y-526950D01*
X700229Y-526950D02*
X690705Y-536474D01*
X690705Y-536474D02*
X671658Y-545998D01*
X671658Y-545998D02*
X633563Y-545998D01*
X633563Y-545998D02*
X614515Y-555522D01*
X614515Y-555522D02*
X604991Y-565046D01*
X604991Y-565046D02*
X595467Y-584093D01*
X595467Y-584093D02*
X595467Y-622189D01*
X595467Y-622189D02*
X604991Y-641236D01*
X604991Y-641236D02*
X614515Y-650760D01*
X614515Y-650760D02*
X633563Y-660284D01*
X633563Y-660284D02*
X671658Y-660284D01*
X671658Y-660284D02*
X690705Y-650760D01*
X690705Y-650760D02*
X700229Y-641236D01*
X700229Y-641236D02*
X709753Y-622189D01*
X709753Y-622189D02*
X709753Y-584093D01*
X709753Y-584093D02*
X700229Y-565046D01*
X700229Y-565046D02*
X690705Y-555522D01*
X690705Y-555522D02*
X671658Y-545998D01*
X833562Y-460284D02*
X852610Y-460284D01*
X852610Y-460284D02*
X871658Y-469808D01*
X871658Y-469808D02*
X881182Y-479331D01*
X881182Y-479331D02*
X890705Y-498379D01*
X890705Y-498379D02*
X900229Y-536474D01*
X900229Y-536474D02*
X900229Y-584093D01*
X900229Y-584093D02*
X890705Y-622189D01*
X890705Y-622189D02*
X881182Y-641236D01*
X881182Y-641236D02*
X871658Y-650760D01*
X871658Y-650760D02*
X852610Y-660284D01*
X852610Y-660284D02*
X833562Y-660284D01*
X833562Y-660284D02*
X814515Y-650760D01*
X814515Y-650760D02*
X804991Y-641236D01*
X804991Y-641236D02*
X795467Y-622189D01*
X795467Y-622189D02*
X785943Y-584093D01*
X785943Y-584093D02*
X785943Y-536474D01*
X785943Y-536474D02*
X795467Y-498379D01*
X795467Y-498379D02*
X804991Y-479331D01*
X804991Y-479331D02*
X814515Y-469808D01*
X814515Y-469808D02*
X833562Y-460284D01*
X1024039Y-460284D02*
X1043086Y-460284D01*
X1043086Y-460284D02*
X1062134Y-469808D01*
X1062134Y-469808D02*
X1071658Y-479331D01*
X1071658Y-479331D02*
X1081182Y-498379D01*
X1081182Y-498379D02*
X1090705Y-536474D01*
X1090705Y-536474D02*
X1090705Y-584093D01*
X1090705Y-584093D02*
X1081182Y-622189D01*
X1081182Y-622189D02*
X1071658Y-641236D01*
X1071658Y-641236D02*
X1062134Y-650760D01*
X1062134Y-650760D02*
X1043086Y-660284D01*
X1043086Y-660284D02*
X1024039Y-660284D01*
X1024039Y-660284D02*
X1004991Y-650760D01*
X1004991Y-650760D02*
X995467Y-641236D01*
X995467Y-641236D02*
X985943Y-622189D01*
X985943Y-622189D02*
X976420Y-584093D01*
X976420Y-584093D02*
X976420Y-536474D01*
X976420Y-536474D02*
X985943Y-498379D01*
X985943Y-498379D02*
X995467Y-479331D01*
X995467Y-479331D02*
X1004991Y-469808D01*
X1004991Y-469808D02*
X1024039Y-460284D01*
X1176420Y-660284D02*
X1176420Y-526950D01*
X1176420Y-545998D02*
X1185944Y-536474D01*
X1185944Y-536474D02*
X1204991Y-526950D01*
X1204991Y-526950D02*
X1233563Y-526950D01*
X1233563Y-526950D02*
X1252610Y-536474D01*
X1252610Y-536474D02*
X1262134Y-555522D01*
X1262134Y-555522D02*
X1262134Y-660284D01*
X1262134Y-555522D02*
X1271658Y-536474D01*
X1271658Y-536474D02*
X1290705Y-526950D01*
X1290705Y-526950D02*
X1319277Y-526950D01*
X1319277Y-526950D02*
X1338325Y-536474D01*
X1338325Y-536474D02*
X1347848Y-555522D01*
X1347848Y-555522D02*
X1347848Y-660284D01*
X1443086Y-660284D02*
X1443086Y-526950D01*
X1443086Y-545998D02*
X1452610Y-536474D01*
X1452610Y-536474D02*
X1471658Y-526950D01*
X1471658Y-526950D02*
X1500229Y-526950D01*
X1500229Y-526950D02*
X1519277Y-536474D01*
X1519277Y-536474D02*
X1528801Y-555522D01*
X1528801Y-555522D02*
X1528801Y-660284D01*
X1528801Y-555522D02*
X1538324Y-536474D01*
X1538324Y-536474D02*
X1557372Y-526950D01*
X1557372Y-526950D02*
X1585943Y-526950D01*
X1585943Y-526950D02*
X1604991Y-536474D01*
X1604991Y-536474D02*
X1614515Y-555522D01*
X1614515Y-555522D02*
X1614515Y-660284D01*
X2004991Y-450760D02*
X1833563Y-707903D01*
X2262134Y-460284D02*
X2281182Y-460284D01*
X2281182Y-460284D02*
X2300229Y-469808D01*
X2300229Y-469808D02*
X2309753Y-479331D01*
X2309753Y-479331D02*
X2319277Y-498379D01*
X2319277Y-498379D02*
X2328801Y-536474D01*
X2328801Y-536474D02*
X2328801Y-584093D01*
X2328801Y-584093D02*
X2319277Y-622189D01*
X2319277Y-622189D02*
X2309753Y-641236D01*
X2309753Y-641236D02*
X2300229Y-650760D01*
X2300229Y-650760D02*
X2281182Y-660284D01*
X2281182Y-660284D02*
X2262134Y-660284D01*
X2262134Y-660284D02*
X2243087Y-650760D01*
X2243087Y-650760D02*
X2233563Y-641236D01*
X2233563Y-641236D02*
X2224039Y-622189D01*
X2224039Y-622189D02*
X2214515Y-584093D01*
X2214515Y-584093D02*
X2214515Y-536474D01*
X2214515Y-536474D02*
X2224039Y-498379D01*
X2224039Y-498379D02*
X2233563Y-479331D01*
X2233563Y-479331D02*
X2243087Y-469808D01*
X2243087Y-469808D02*
X2262134Y-460284D01*
X2414515Y-641236D02*
X2424039Y-650760D01*
X2424039Y-650760D02*
X2414515Y-660284D01*
X2414515Y-660284D02*
X2404991Y-650760D01*
X2404991Y-650760D02*
X2414515Y-641236D01*
X2414515Y-641236D02*
X2414515Y-660284D01*
X2547848Y-460284D02*
X2566896Y-460284D01*
X2566896Y-460284D02*
X2585944Y-469808D01*
X2585944Y-469808D02*
X2595468Y-479331D01*
X2595468Y-479331D02*
X2604991Y-498379D01*
X2604991Y-498379D02*
X2614515Y-536474D01*
X2614515Y-536474D02*
X2614515Y-584093D01*
X2614515Y-584093D02*
X2604991Y-622189D01*
X2604991Y-622189D02*
X2595468Y-641236D01*
X2595468Y-641236D02*
X2585944Y-650760D01*
X2585944Y-650760D02*
X2566896Y-660284D01*
X2566896Y-660284D02*
X2547848Y-660284D01*
X2547848Y-660284D02*
X2528801Y-650760D01*
X2528801Y-650760D02*
X2519277Y-641236D01*
X2519277Y-641236D02*
X2509753Y-622189D01*
X2509753Y-622189D02*
X2500229Y-584093D01*
X2500229Y-584093D02*
X2500229Y-536474D01*
X2500229Y-536474D02*
X2509753Y-498379D01*
X2509753Y-498379D02*
X2519277Y-479331D01*
X2519277Y-479331D02*
X2528801Y-469808D01*
X2528801Y-469808D02*
X2547848Y-460284D01*
X2681182Y-460284D02*
X2804991Y-460284D01*
X2804991Y-460284D02*
X2738325Y-536474D01*
X2738325Y-536474D02*
X2766896Y-536474D01*
X2766896Y-536474D02*
X2785944Y-545998D01*
X2785944Y-545998D02*
X2795468Y-555522D01*
X2795468Y-555522D02*
X2804991Y-574570D01*
X2804991Y-574570D02*
X2804991Y-622189D01*
X2804991Y-622189D02*
X2795468Y-641236D01*
X2795468Y-641236D02*
X2785944Y-650760D01*
X2785944Y-650760D02*
X2766896Y-660284D01*
X2766896Y-660284D02*
X2709753Y-660284D01*
X2709753Y-660284D02*
X2690706Y-650760D01*
X2690706Y-650760D02*
X2681182Y-641236D01*
X2995467Y-660284D02*
X2881182Y-660284D01*
X2938325Y-660284D02*
X2938325Y-460284D01*
X2938325Y-460284D02*
X2919277Y-488855D01*
X2919277Y-488855D02*
X2900229Y-507903D01*
X2900229Y-507903D02*
X2881182Y-517427D01*
X3176420Y-460284D02*
X3081182Y-460284D01*
X3081182Y-460284D02*
X3071658Y-555522D01*
X3071658Y-555522D02*
X3081182Y-545998D01*
X3081182Y-545998D02*
X3100229Y-536474D01*
X3100229Y-536474D02*
X3147848Y-536474D01*
X3147848Y-536474D02*
X3166896Y-545998D01*
X3166896Y-545998D02*
X3176420Y-555522D01*
X3176420Y-555522D02*
X3185944Y-574570D01*
X3185944Y-574570D02*
X3185944Y-622189D01*
X3185944Y-622189D02*
X3176420Y-641236D01*
X3176420Y-641236D02*
X3166896Y-650760D01*
X3166896Y-650760D02*
X3147848Y-660284D01*
X3147848Y-660284D02*
X3100229Y-660284D01*
X3100229Y-660284D02*
X3081182Y-650760D01*
X3081182Y-650760D02*
X3071658Y-641236D01*
X3262134Y-460284D02*
X3262134Y-498379D01*
X3338325Y-460284D02*
X3338325Y-498379D01*
X3633563Y-736474D02*
X3624039Y-726950D01*
X3624039Y-726950D02*
X3604991Y-698379D01*
X3604991Y-698379D02*
X3595468Y-679331D01*
X3595468Y-679331D02*
X3585944Y-650760D01*
X3585944Y-650760D02*
X3576420Y-603141D01*
X3576420Y-603141D02*
X3576420Y-565046D01*
X3576420Y-565046D02*
X3585944Y-517427D01*
X3585944Y-517427D02*
X3595468Y-488855D01*
X3595468Y-488855D02*
X3604991Y-469808D01*
X3604991Y-469808D02*
X3624039Y-441236D01*
X3624039Y-441236D02*
X3633563Y-431712D01*
X3700229Y-479331D02*
X3709753Y-469808D01*
X3709753Y-469808D02*
X3728801Y-460284D01*
X3728801Y-460284D02*
X3776420Y-460284D01*
X3776420Y-460284D02*
X3795468Y-469808D01*
X3795468Y-469808D02*
X3804991Y-479331D01*
X3804991Y-479331D02*
X3814515Y-498379D01*
X3814515Y-498379D02*
X3814515Y-517427D01*
X3814515Y-517427D02*
X3804991Y-545998D01*
X3804991Y-545998D02*
X3690706Y-660284D01*
X3690706Y-660284D02*
X3814515Y-660284D01*
X4052610Y-660284D02*
X4052610Y-460284D01*
X4138325Y-660284D02*
X4138325Y-555522D01*
X4138325Y-555522D02*
X4128801Y-536474D01*
X4128801Y-536474D02*
X4109753Y-526950D01*
X4109753Y-526950D02*
X4081182Y-526950D01*
X4081182Y-526950D02*
X4062134Y-536474D01*
X4062134Y-536474D02*
X4052610Y-545998D01*
X4262134Y-660284D02*
X4243087Y-650760D01*
X4243087Y-650760D02*
X4233563Y-641236D01*
X4233563Y-641236D02*
X4224039Y-622189D01*
X4224039Y-622189D02*
X4224039Y-565046D01*
X4224039Y-565046D02*
X4233563Y-545998D01*
X4233563Y-545998D02*
X4243087Y-536474D01*
X4243087Y-536474D02*
X4262134Y-526950D01*
X4262134Y-526950D02*
X4290706Y-526950D01*
X4290706Y-526950D02*
X4309753Y-536474D01*
X4309753Y-536474D02*
X4319277Y-545998D01*
X4319277Y-545998D02*
X4328801Y-565046D01*
X4328801Y-565046D02*
X4328801Y-622189D01*
X4328801Y-622189D02*
X4319277Y-641236D01*
X4319277Y-641236D02*
X4309753Y-650760D01*
X4309753Y-650760D02*
X4290706Y-660284D01*
X4290706Y-660284D02*
X4262134Y-660284D01*
X4443087Y-660284D02*
X4424039Y-650760D01*
X4424039Y-650760D02*
X4414515Y-631712D01*
X4414515Y-631712D02*
X4414515Y-460284D01*
X4595468Y-650760D02*
X4576420Y-660284D01*
X4576420Y-660284D02*
X4538325Y-660284D01*
X4538325Y-660284D02*
X4519277Y-650760D01*
X4519277Y-650760D02*
X4509753Y-631712D01*
X4509753Y-631712D02*
X4509753Y-555522D01*
X4509753Y-555522D02*
X4519277Y-536474D01*
X4519277Y-536474D02*
X4538325Y-526950D01*
X4538325Y-526950D02*
X4576420Y-526950D01*
X4576420Y-526950D02*
X4595468Y-536474D01*
X4595468Y-536474D02*
X4604992Y-555522D01*
X4604992Y-555522D02*
X4604992Y-574570D01*
X4604992Y-574570D02*
X4509753Y-593617D01*
X4681182Y-650760D02*
X4700230Y-660284D01*
X4700230Y-660284D02*
X4738325Y-660284D01*
X4738325Y-660284D02*
X4757373Y-650760D01*
X4757373Y-650760D02*
X4766896Y-631712D01*
X4766896Y-631712D02*
X4766896Y-622189D01*
X4766896Y-622189D02*
X4757373Y-603141D01*
X4757373Y-603141D02*
X4738325Y-593617D01*
X4738325Y-593617D02*
X4709753Y-593617D01*
X4709753Y-593617D02*
X4690706Y-584093D01*
X4690706Y-584093D02*
X4681182Y-565046D01*
X4681182Y-565046D02*
X4681182Y-555522D01*
X4681182Y-555522D02*
X4690706Y-536474D01*
X4690706Y-536474D02*
X4709753Y-526950D01*
X4709753Y-526950D02*
X4738325Y-526950D01*
X4738325Y-526950D02*
X4757373Y-536474D01*
X4833563Y-736474D02*
X4843087Y-726950D01*
X4843087Y-726950D02*
X4862134Y-698379D01*
X4862134Y-698379D02*
X4871658Y-679331D01*
X4871658Y-679331D02*
X4881182Y-650760D01*
X4881182Y-650760D02*
X4890706Y-603141D01*
X4890706Y-603141D02*
X4890706Y-565046D01*
X4890706Y-565046D02*
X4881182Y-517427D01*
X4881182Y-517427D02*
X4871658Y-488855D01*
X4871658Y-488855D02*
X4862134Y-469808D01*
X4862134Y-469808D02*
X4843087Y-441236D01*
X4843087Y-441236D02*
X4833563Y-431712D01*
D13*
X58500Y-832800D02*
G75*
G03*
X58500Y-832800I-47500J0D01*
G01*
D11*
X357372Y-724284D02*
X376420Y-724284D01*
X376420Y-724284D02*
X395467Y-733808D01*
X395467Y-733808D02*
X404991Y-743331D01*
X404991Y-743331D02*
X414515Y-762379D01*
X414515Y-762379D02*
X424039Y-800474D01*
X424039Y-800474D02*
X424039Y-848093D01*
X424039Y-848093D02*
X414515Y-886188D01*
X414515Y-886188D02*
X404991Y-905236D01*
X404991Y-905236D02*
X395467Y-914760D01*
X395467Y-914760D02*
X376420Y-924284D01*
X376420Y-924284D02*
X357372Y-924284D01*
X357372Y-924284D02*
X338324Y-914760D01*
X338324Y-914760D02*
X328801Y-905236D01*
X328801Y-905236D02*
X319277Y-886188D01*
X319277Y-886188D02*
X309753Y-848093D01*
X309753Y-848093D02*
X309753Y-800474D01*
X309753Y-800474D02*
X319277Y-762379D01*
X319277Y-762379D02*
X328801Y-743331D01*
X328801Y-743331D02*
X338324Y-733808D01*
X338324Y-733808D02*
X357372Y-724284D01*
X509753Y-905236D02*
X519277Y-914760D01*
X519277Y-914760D02*
X509753Y-924284D01*
X509753Y-924284D02*
X500229Y-914760D01*
X500229Y-914760D02*
X509753Y-905236D01*
X509753Y-905236D02*
X509753Y-924284D01*
X614515Y-924284D02*
X652610Y-924284D01*
X652610Y-924284D02*
X671658Y-914760D01*
X671658Y-914760D02*
X681182Y-905236D01*
X681182Y-905236D02*
X700229Y-876665D01*
X700229Y-876665D02*
X709753Y-838569D01*
X709753Y-838569D02*
X709753Y-762379D01*
X709753Y-762379D02*
X700229Y-743331D01*
X700229Y-743331D02*
X690705Y-733808D01*
X690705Y-733808D02*
X671658Y-724284D01*
X671658Y-724284D02*
X633563Y-724284D01*
X633563Y-724284D02*
X614515Y-733808D01*
X614515Y-733808D02*
X604991Y-743331D01*
X604991Y-743331D02*
X595467Y-762379D01*
X595467Y-762379D02*
X595467Y-809998D01*
X595467Y-809998D02*
X604991Y-829046D01*
X604991Y-829046D02*
X614515Y-838569D01*
X614515Y-838569D02*
X633563Y-848093D01*
X633563Y-848093D02*
X671658Y-848093D01*
X671658Y-848093D02*
X690705Y-838569D01*
X690705Y-838569D02*
X700229Y-829046D01*
X700229Y-829046D02*
X709753Y-809998D01*
X890705Y-724284D02*
X795467Y-724284D01*
X795467Y-724284D02*
X785943Y-819522D01*
X785943Y-819522D02*
X795467Y-809998D01*
X795467Y-809998D02*
X814515Y-800474D01*
X814515Y-800474D02*
X862134Y-800474D01*
X862134Y-800474D02*
X881182Y-809998D01*
X881182Y-809998D02*
X890705Y-819522D01*
X890705Y-819522D02*
X900229Y-838569D01*
X900229Y-838569D02*
X900229Y-886188D01*
X900229Y-886188D02*
X890705Y-905236D01*
X890705Y-905236D02*
X881182Y-914760D01*
X881182Y-914760D02*
X862134Y-924284D01*
X862134Y-924284D02*
X814515Y-924284D01*
X814515Y-924284D02*
X795467Y-914760D01*
X795467Y-914760D02*
X785943Y-905236D01*
X1024039Y-724284D02*
X1043086Y-724284D01*
X1043086Y-724284D02*
X1062134Y-733808D01*
X1062134Y-733808D02*
X1071658Y-743331D01*
X1071658Y-743331D02*
X1081182Y-762379D01*
X1081182Y-762379D02*
X1090705Y-800474D01*
X1090705Y-800474D02*
X1090705Y-848093D01*
X1090705Y-848093D02*
X1081182Y-886188D01*
X1081182Y-886188D02*
X1071658Y-905236D01*
X1071658Y-905236D02*
X1062134Y-914760D01*
X1062134Y-914760D02*
X1043086Y-924284D01*
X1043086Y-924284D02*
X1024039Y-924284D01*
X1024039Y-924284D02*
X1004991Y-914760D01*
X1004991Y-914760D02*
X995467Y-905236D01*
X995467Y-905236D02*
X985943Y-886188D01*
X985943Y-886188D02*
X976420Y-848093D01*
X976420Y-848093D02*
X976420Y-800474D01*
X976420Y-800474D02*
X985943Y-762379D01*
X985943Y-762379D02*
X995467Y-743331D01*
X995467Y-743331D02*
X1004991Y-733808D01*
X1004991Y-733808D02*
X1024039Y-724284D01*
X1176420Y-924284D02*
X1176420Y-790950D01*
X1176420Y-809998D02*
X1185944Y-800474D01*
X1185944Y-800474D02*
X1204991Y-790950D01*
X1204991Y-790950D02*
X1233563Y-790950D01*
X1233563Y-790950D02*
X1252610Y-800474D01*
X1252610Y-800474D02*
X1262134Y-819522D01*
X1262134Y-819522D02*
X1262134Y-924284D01*
X1262134Y-819522D02*
X1271658Y-800474D01*
X1271658Y-800474D02*
X1290705Y-790950D01*
X1290705Y-790950D02*
X1319277Y-790950D01*
X1319277Y-790950D02*
X1338325Y-800474D01*
X1338325Y-800474D02*
X1347848Y-819522D01*
X1347848Y-819522D02*
X1347848Y-924284D01*
X1443086Y-924284D02*
X1443086Y-790950D01*
X1443086Y-809998D02*
X1452610Y-800474D01*
X1452610Y-800474D02*
X1471658Y-790950D01*
X1471658Y-790950D02*
X1500229Y-790950D01*
X1500229Y-790950D02*
X1519277Y-800474D01*
X1519277Y-800474D02*
X1528801Y-819522D01*
X1528801Y-819522D02*
X1528801Y-924284D01*
X1528801Y-819522D02*
X1538324Y-800474D01*
X1538324Y-800474D02*
X1557372Y-790950D01*
X1557372Y-790950D02*
X1585943Y-790950D01*
X1585943Y-790950D02*
X1604991Y-800474D01*
X1604991Y-800474D02*
X1614515Y-819522D01*
X1614515Y-819522D02*
X1614515Y-924284D01*
X2004991Y-714760D02*
X1833563Y-971903D01*
X2262134Y-724284D02*
X2281182Y-724284D01*
X2281182Y-724284D02*
X2300229Y-733808D01*
X2300229Y-733808D02*
X2309753Y-743331D01*
X2309753Y-743331D02*
X2319277Y-762379D01*
X2319277Y-762379D02*
X2328801Y-800474D01*
X2328801Y-800474D02*
X2328801Y-848093D01*
X2328801Y-848093D02*
X2319277Y-886188D01*
X2319277Y-886188D02*
X2309753Y-905236D01*
X2309753Y-905236D02*
X2300229Y-914760D01*
X2300229Y-914760D02*
X2281182Y-924284D01*
X2281182Y-924284D02*
X2262134Y-924284D01*
X2262134Y-924284D02*
X2243087Y-914760D01*
X2243087Y-914760D02*
X2233563Y-905236D01*
X2233563Y-905236D02*
X2224039Y-886188D01*
X2224039Y-886188D02*
X2214515Y-848093D01*
X2214515Y-848093D02*
X2214515Y-800474D01*
X2214515Y-800474D02*
X2224039Y-762379D01*
X2224039Y-762379D02*
X2233563Y-743331D01*
X2233563Y-743331D02*
X2243087Y-733808D01*
X2243087Y-733808D02*
X2262134Y-724284D01*
X2414515Y-905236D02*
X2424039Y-914760D01*
X2424039Y-914760D02*
X2414515Y-924284D01*
X2414515Y-924284D02*
X2404991Y-914760D01*
X2404991Y-914760D02*
X2414515Y-905236D01*
X2414515Y-905236D02*
X2414515Y-924284D01*
X2547848Y-724284D02*
X2566896Y-724284D01*
X2566896Y-724284D02*
X2585944Y-733808D01*
X2585944Y-733808D02*
X2595468Y-743331D01*
X2595468Y-743331D02*
X2604991Y-762379D01*
X2604991Y-762379D02*
X2614515Y-800474D01*
X2614515Y-800474D02*
X2614515Y-848093D01*
X2614515Y-848093D02*
X2604991Y-886188D01*
X2604991Y-886188D02*
X2595468Y-905236D01*
X2595468Y-905236D02*
X2585944Y-914760D01*
X2585944Y-914760D02*
X2566896Y-924284D01*
X2566896Y-924284D02*
X2547848Y-924284D01*
X2547848Y-924284D02*
X2528801Y-914760D01*
X2528801Y-914760D02*
X2519277Y-905236D01*
X2519277Y-905236D02*
X2509753Y-886188D01*
X2509753Y-886188D02*
X2500229Y-848093D01*
X2500229Y-848093D02*
X2500229Y-800474D01*
X2500229Y-800474D02*
X2509753Y-762379D01*
X2509753Y-762379D02*
X2519277Y-743331D01*
X2519277Y-743331D02*
X2528801Y-733808D01*
X2528801Y-733808D02*
X2547848Y-724284D01*
X2681182Y-724284D02*
X2804991Y-724284D01*
X2804991Y-724284D02*
X2738325Y-800474D01*
X2738325Y-800474D02*
X2766896Y-800474D01*
X2766896Y-800474D02*
X2785944Y-809998D01*
X2785944Y-809998D02*
X2795468Y-819522D01*
X2795468Y-819522D02*
X2804991Y-838569D01*
X2804991Y-838569D02*
X2804991Y-886188D01*
X2804991Y-886188D02*
X2795468Y-905236D01*
X2795468Y-905236D02*
X2785944Y-914760D01*
X2785944Y-914760D02*
X2766896Y-924284D01*
X2766896Y-924284D02*
X2709753Y-924284D01*
X2709753Y-924284D02*
X2690706Y-914760D01*
X2690706Y-914760D02*
X2681182Y-905236D01*
X2871658Y-724284D02*
X3004991Y-724284D01*
X3004991Y-724284D02*
X2919277Y-924284D01*
X3166896Y-790950D02*
X3166896Y-924284D01*
X3119277Y-714760D02*
X3071658Y-857617D01*
X3071658Y-857617D02*
X3195467Y-857617D01*
X3262134Y-724284D02*
X3262134Y-762379D01*
X3338325Y-724284D02*
X3338325Y-762379D01*
X3633563Y-1000474D02*
X3624039Y-990950D01*
X3624039Y-990950D02*
X3604991Y-962379D01*
X3604991Y-962379D02*
X3595468Y-943331D01*
X3595468Y-943331D02*
X3585944Y-914760D01*
X3585944Y-914760D02*
X3576420Y-867141D01*
X3576420Y-867141D02*
X3576420Y-829046D01*
X3576420Y-829046D02*
X3585944Y-781427D01*
X3585944Y-781427D02*
X3595468Y-752855D01*
X3595468Y-752855D02*
X3604991Y-733808D01*
X3604991Y-733808D02*
X3624039Y-705236D01*
X3624039Y-705236D02*
X3633563Y-695712D01*
X3795468Y-790950D02*
X3795468Y-924284D01*
X3747848Y-714760D02*
X3700229Y-857617D01*
X3700229Y-857617D02*
X3824039Y-857617D01*
X4052610Y-924284D02*
X4052610Y-724284D01*
X4138325Y-924284D02*
X4138325Y-819522D01*
X4138325Y-819522D02*
X4128801Y-800474D01*
X4128801Y-800474D02*
X4109753Y-790950D01*
X4109753Y-790950D02*
X4081182Y-790950D01*
X4081182Y-790950D02*
X4062134Y-800474D01*
X4062134Y-800474D02*
X4052610Y-809998D01*
X4262134Y-924284D02*
X4243087Y-914760D01*
X4243087Y-914760D02*
X4233563Y-905236D01*
X4233563Y-905236D02*
X4224039Y-886188D01*
X4224039Y-886188D02*
X4224039Y-829046D01*
X4224039Y-829046D02*
X4233563Y-809998D01*
X4233563Y-809998D02*
X4243087Y-800474D01*
X4243087Y-800474D02*
X4262134Y-790950D01*
X4262134Y-790950D02*
X4290706Y-790950D01*
X4290706Y-790950D02*
X4309753Y-800474D01*
X4309753Y-800474D02*
X4319277Y-809998D01*
X4319277Y-809998D02*
X4328801Y-829046D01*
X4328801Y-829046D02*
X4328801Y-886188D01*
X4328801Y-886188D02*
X4319277Y-905236D01*
X4319277Y-905236D02*
X4309753Y-914760D01*
X4309753Y-914760D02*
X4290706Y-924284D01*
X4290706Y-924284D02*
X4262134Y-924284D01*
X4443087Y-924284D02*
X4424039Y-914760D01*
X4424039Y-914760D02*
X4414515Y-895712D01*
X4414515Y-895712D02*
X4414515Y-724284D01*
X4595468Y-914760D02*
X4576420Y-924284D01*
X4576420Y-924284D02*
X4538325Y-924284D01*
X4538325Y-924284D02*
X4519277Y-914760D01*
X4519277Y-914760D02*
X4509753Y-895712D01*
X4509753Y-895712D02*
X4509753Y-819522D01*
X4509753Y-819522D02*
X4519277Y-800474D01*
X4519277Y-800474D02*
X4538325Y-790950D01*
X4538325Y-790950D02*
X4576420Y-790950D01*
X4576420Y-790950D02*
X4595468Y-800474D01*
X4595468Y-800474D02*
X4604992Y-819522D01*
X4604992Y-819522D02*
X4604992Y-838569D01*
X4604992Y-838569D02*
X4509753Y-857617D01*
X4681182Y-914760D02*
X4700230Y-924284D01*
X4700230Y-924284D02*
X4738325Y-924284D01*
X4738325Y-924284D02*
X4757373Y-914760D01*
X4757373Y-914760D02*
X4766896Y-895712D01*
X4766896Y-895712D02*
X4766896Y-886188D01*
X4766896Y-886188D02*
X4757373Y-867141D01*
X4757373Y-867141D02*
X4738325Y-857617D01*
X4738325Y-857617D02*
X4709753Y-857617D01*
X4709753Y-857617D02*
X4690706Y-848093D01*
X4690706Y-848093D02*
X4681182Y-829046D01*
X4681182Y-829046D02*
X4681182Y-819522D01*
X4681182Y-819522D02*
X4690706Y-800474D01*
X4690706Y-800474D02*
X4709753Y-790950D01*
X4709753Y-790950D02*
X4738325Y-790950D01*
X4738325Y-790950D02*
X4757373Y-800474D01*
X4833563Y-1000474D02*
X4843087Y-990950D01*
X4843087Y-990950D02*
X4862134Y-962379D01*
X4862134Y-962379D02*
X4871658Y-943331D01*
X4871658Y-943331D02*
X4881182Y-914760D01*
X4881182Y-914760D02*
X4890706Y-867141D01*
X4890706Y-867141D02*
X4890706Y-829046D01*
X4890706Y-829046D02*
X4881182Y-781427D01*
X4881182Y-781427D02*
X4871658Y-752855D01*
X4871658Y-752855D02*
X4862134Y-733808D01*
X4862134Y-733808D02*
X4843087Y-705236D01*
X4843087Y-705236D02*
X4833563Y-695712D01*
D10*
X8500Y-1046800D02*
X8500Y-1146800D01*
X-41500Y-1096800D02*
X58500Y-1096800D01*
D11*
X424039Y-1188284D02*
X309753Y-1188284D01*
X366896Y-1188284D02*
X366896Y-988284D01*
X366896Y-988284D02*
X347848Y-1016855D01*
X347848Y-1016855D02*
X328801Y-1035903D01*
X328801Y-1035903D02*
X309753Y-1045427D01*
X509753Y-1169236D02*
X519277Y-1178760D01*
X519277Y-1178760D02*
X509753Y-1188284D01*
X509753Y-1188284D02*
X500229Y-1178760D01*
X500229Y-1178760D02*
X509753Y-1169236D01*
X509753Y-1169236D02*
X509753Y-1188284D01*
X643086Y-988284D02*
X662134Y-988284D01*
X662134Y-988284D02*
X681182Y-997808D01*
X681182Y-997808D02*
X690705Y-1007331D01*
X690705Y-1007331D02*
X700229Y-1026379D01*
X700229Y-1026379D02*
X709753Y-1064474D01*
X709753Y-1064474D02*
X709753Y-1112093D01*
X709753Y-1112093D02*
X700229Y-1150189D01*
X700229Y-1150189D02*
X690705Y-1169236D01*
X690705Y-1169236D02*
X681182Y-1178760D01*
X681182Y-1178760D02*
X662134Y-1188284D01*
X662134Y-1188284D02*
X643086Y-1188284D01*
X643086Y-1188284D02*
X624039Y-1178760D01*
X624039Y-1178760D02*
X614515Y-1169236D01*
X614515Y-1169236D02*
X604991Y-1150189D01*
X604991Y-1150189D02*
X595467Y-1112093D01*
X595467Y-1112093D02*
X595467Y-1064474D01*
X595467Y-1064474D02*
X604991Y-1026379D01*
X604991Y-1026379D02*
X614515Y-1007331D01*
X614515Y-1007331D02*
X624039Y-997808D01*
X624039Y-997808D02*
X643086Y-988284D01*
X833562Y-988284D02*
X852610Y-988284D01*
X852610Y-988284D02*
X871658Y-997808D01*
X871658Y-997808D02*
X881182Y-1007331D01*
X881182Y-1007331D02*
X890705Y-1026379D01*
X890705Y-1026379D02*
X900229Y-1064474D01*
X900229Y-1064474D02*
X900229Y-1112093D01*
X900229Y-1112093D02*
X890705Y-1150189D01*
X890705Y-1150189D02*
X881182Y-1169236D01*
X881182Y-1169236D02*
X871658Y-1178760D01*
X871658Y-1178760D02*
X852610Y-1188284D01*
X852610Y-1188284D02*
X833562Y-1188284D01*
X833562Y-1188284D02*
X814515Y-1178760D01*
X814515Y-1178760D02*
X804991Y-1169236D01*
X804991Y-1169236D02*
X795467Y-1150189D01*
X795467Y-1150189D02*
X785943Y-1112093D01*
X785943Y-1112093D02*
X785943Y-1064474D01*
X785943Y-1064474D02*
X795467Y-1026379D01*
X795467Y-1026379D02*
X804991Y-1007331D01*
X804991Y-1007331D02*
X814515Y-997808D01*
X814515Y-997808D02*
X833562Y-988284D01*
X1024039Y-988284D02*
X1043086Y-988284D01*
X1043086Y-988284D02*
X1062134Y-997808D01*
X1062134Y-997808D02*
X1071658Y-1007331D01*
X1071658Y-1007331D02*
X1081182Y-1026379D01*
X1081182Y-1026379D02*
X1090705Y-1064474D01*
X1090705Y-1064474D02*
X1090705Y-1112093D01*
X1090705Y-1112093D02*
X1081182Y-1150189D01*
X1081182Y-1150189D02*
X1071658Y-1169236D01*
X1071658Y-1169236D02*
X1062134Y-1178760D01*
X1062134Y-1178760D02*
X1043086Y-1188284D01*
X1043086Y-1188284D02*
X1024039Y-1188284D01*
X1024039Y-1188284D02*
X1004991Y-1178760D01*
X1004991Y-1178760D02*
X995467Y-1169236D01*
X995467Y-1169236D02*
X985943Y-1150189D01*
X985943Y-1150189D02*
X976420Y-1112093D01*
X976420Y-1112093D02*
X976420Y-1064474D01*
X976420Y-1064474D02*
X985943Y-1026379D01*
X985943Y-1026379D02*
X995467Y-1007331D01*
X995467Y-1007331D02*
X1004991Y-997808D01*
X1004991Y-997808D02*
X1024039Y-988284D01*
X1176420Y-1188284D02*
X1176420Y-1054950D01*
X1176420Y-1073998D02*
X1185944Y-1064474D01*
X1185944Y-1064474D02*
X1204991Y-1054950D01*
X1204991Y-1054950D02*
X1233563Y-1054950D01*
X1233563Y-1054950D02*
X1252610Y-1064474D01*
X1252610Y-1064474D02*
X1262134Y-1083522D01*
X1262134Y-1083522D02*
X1262134Y-1188284D01*
X1262134Y-1083522D02*
X1271658Y-1064474D01*
X1271658Y-1064474D02*
X1290705Y-1054950D01*
X1290705Y-1054950D02*
X1319277Y-1054950D01*
X1319277Y-1054950D02*
X1338325Y-1064474D01*
X1338325Y-1064474D02*
X1347848Y-1083522D01*
X1347848Y-1083522D02*
X1347848Y-1188284D01*
X1443086Y-1188284D02*
X1443086Y-1054950D01*
X1443086Y-1073998D02*
X1452610Y-1064474D01*
X1452610Y-1064474D02*
X1471658Y-1054950D01*
X1471658Y-1054950D02*
X1500229Y-1054950D01*
X1500229Y-1054950D02*
X1519277Y-1064474D01*
X1519277Y-1064474D02*
X1528801Y-1083522D01*
X1528801Y-1083522D02*
X1528801Y-1188284D01*
X1528801Y-1083522D02*
X1538324Y-1064474D01*
X1538324Y-1064474D02*
X1557372Y-1054950D01*
X1557372Y-1054950D02*
X1585943Y-1054950D01*
X1585943Y-1054950D02*
X1604991Y-1064474D01*
X1604991Y-1064474D02*
X1614515Y-1083522D01*
X1614515Y-1083522D02*
X1614515Y-1188284D01*
X2004991Y-978760D02*
X1833563Y-1235903D01*
X2262134Y-988284D02*
X2281182Y-988284D01*
X2281182Y-988284D02*
X2300229Y-997808D01*
X2300229Y-997808D02*
X2309753Y-1007331D01*
X2309753Y-1007331D02*
X2319277Y-1026379D01*
X2319277Y-1026379D02*
X2328801Y-1064474D01*
X2328801Y-1064474D02*
X2328801Y-1112093D01*
X2328801Y-1112093D02*
X2319277Y-1150189D01*
X2319277Y-1150189D02*
X2309753Y-1169236D01*
X2309753Y-1169236D02*
X2300229Y-1178760D01*
X2300229Y-1178760D02*
X2281182Y-1188284D01*
X2281182Y-1188284D02*
X2262134Y-1188284D01*
X2262134Y-1188284D02*
X2243087Y-1178760D01*
X2243087Y-1178760D02*
X2233563Y-1169236D01*
X2233563Y-1169236D02*
X2224039Y-1150189D01*
X2224039Y-1150189D02*
X2214515Y-1112093D01*
X2214515Y-1112093D02*
X2214515Y-1064474D01*
X2214515Y-1064474D02*
X2224039Y-1026379D01*
X2224039Y-1026379D02*
X2233563Y-1007331D01*
X2233563Y-1007331D02*
X2243087Y-997808D01*
X2243087Y-997808D02*
X2262134Y-988284D01*
X2414515Y-1169236D02*
X2424039Y-1178760D01*
X2424039Y-1178760D02*
X2414515Y-1188284D01*
X2414515Y-1188284D02*
X2404991Y-1178760D01*
X2404991Y-1178760D02*
X2414515Y-1169236D01*
X2414515Y-1169236D02*
X2414515Y-1188284D01*
X2547848Y-988284D02*
X2566896Y-988284D01*
X2566896Y-988284D02*
X2585944Y-997808D01*
X2585944Y-997808D02*
X2595468Y-1007331D01*
X2595468Y-1007331D02*
X2604991Y-1026379D01*
X2604991Y-1026379D02*
X2614515Y-1064474D01*
X2614515Y-1064474D02*
X2614515Y-1112093D01*
X2614515Y-1112093D02*
X2604991Y-1150189D01*
X2604991Y-1150189D02*
X2595468Y-1169236D01*
X2595468Y-1169236D02*
X2585944Y-1178760D01*
X2585944Y-1178760D02*
X2566896Y-1188284D01*
X2566896Y-1188284D02*
X2547848Y-1188284D01*
X2547848Y-1188284D02*
X2528801Y-1178760D01*
X2528801Y-1178760D02*
X2519277Y-1169236D01*
X2519277Y-1169236D02*
X2509753Y-1150189D01*
X2509753Y-1150189D02*
X2500229Y-1112093D01*
X2500229Y-1112093D02*
X2500229Y-1064474D01*
X2500229Y-1064474D02*
X2509753Y-1026379D01*
X2509753Y-1026379D02*
X2519277Y-1007331D01*
X2519277Y-1007331D02*
X2528801Y-997808D01*
X2528801Y-997808D02*
X2547848Y-988284D01*
X2681182Y-988284D02*
X2804991Y-988284D01*
X2804991Y-988284D02*
X2738325Y-1064474D01*
X2738325Y-1064474D02*
X2766896Y-1064474D01*
X2766896Y-1064474D02*
X2785944Y-1073998D01*
X2785944Y-1073998D02*
X2795468Y-1083522D01*
X2795468Y-1083522D02*
X2804991Y-1102570D01*
X2804991Y-1102570D02*
X2804991Y-1150189D01*
X2804991Y-1150189D02*
X2795468Y-1169236D01*
X2795468Y-1169236D02*
X2785944Y-1178760D01*
X2785944Y-1178760D02*
X2766896Y-1188284D01*
X2766896Y-1188284D02*
X2709753Y-1188284D01*
X2709753Y-1188284D02*
X2690706Y-1178760D01*
X2690706Y-1178760D02*
X2681182Y-1169236D01*
X2900229Y-1188284D02*
X2938325Y-1188284D01*
X2938325Y-1188284D02*
X2957372Y-1178760D01*
X2957372Y-1178760D02*
X2966896Y-1169236D01*
X2966896Y-1169236D02*
X2985944Y-1140665D01*
X2985944Y-1140665D02*
X2995467Y-1102570D01*
X2995467Y-1102570D02*
X2995467Y-1026379D01*
X2995467Y-1026379D02*
X2985944Y-1007331D01*
X2985944Y-1007331D02*
X2976420Y-997808D01*
X2976420Y-997808D02*
X2957372Y-988284D01*
X2957372Y-988284D02*
X2919277Y-988284D01*
X2919277Y-988284D02*
X2900229Y-997808D01*
X2900229Y-997808D02*
X2890706Y-1007331D01*
X2890706Y-1007331D02*
X2881182Y-1026379D01*
X2881182Y-1026379D02*
X2881182Y-1073998D01*
X2881182Y-1073998D02*
X2890706Y-1093046D01*
X2890706Y-1093046D02*
X2900229Y-1102570D01*
X2900229Y-1102570D02*
X2919277Y-1112093D01*
X2919277Y-1112093D02*
X2957372Y-1112093D01*
X2957372Y-1112093D02*
X2976420Y-1102570D01*
X2976420Y-1102570D02*
X2985944Y-1093046D01*
X2985944Y-1093046D02*
X2995467Y-1073998D01*
X3166896Y-1054950D02*
X3166896Y-1188284D01*
X3119277Y-978760D02*
X3071658Y-1121617D01*
X3071658Y-1121617D02*
X3195467Y-1121617D01*
X3262134Y-988284D02*
X3262134Y-1026379D01*
X3338325Y-988284D02*
X3338325Y-1026379D01*
X3633563Y-1264474D02*
X3624039Y-1254950D01*
X3624039Y-1254950D02*
X3604991Y-1226379D01*
X3604991Y-1226379D02*
X3595468Y-1207331D01*
X3595468Y-1207331D02*
X3585944Y-1178760D01*
X3585944Y-1178760D02*
X3576420Y-1131141D01*
X3576420Y-1131141D02*
X3576420Y-1093046D01*
X3576420Y-1093046D02*
X3585944Y-1045427D01*
X3585944Y-1045427D02*
X3595468Y-1016855D01*
X3595468Y-1016855D02*
X3604991Y-997808D01*
X3604991Y-997808D02*
X3624039Y-969236D01*
X3624039Y-969236D02*
X3633563Y-959712D01*
X3795468Y-988284D02*
X3757372Y-988284D01*
X3757372Y-988284D02*
X3738325Y-997808D01*
X3738325Y-997808D02*
X3728801Y-1007331D01*
X3728801Y-1007331D02*
X3709753Y-1035903D01*
X3709753Y-1035903D02*
X3700229Y-1073998D01*
X3700229Y-1073998D02*
X3700229Y-1150189D01*
X3700229Y-1150189D02*
X3709753Y-1169236D01*
X3709753Y-1169236D02*
X3719277Y-1178760D01*
X3719277Y-1178760D02*
X3738325Y-1188284D01*
X3738325Y-1188284D02*
X3776420Y-1188284D01*
X3776420Y-1188284D02*
X3795468Y-1178760D01*
X3795468Y-1178760D02*
X3804991Y-1169236D01*
X3804991Y-1169236D02*
X3814515Y-1150189D01*
X3814515Y-1150189D02*
X3814515Y-1102570D01*
X3814515Y-1102570D02*
X3804991Y-1083522D01*
X3804991Y-1083522D02*
X3795468Y-1073998D01*
X3795468Y-1073998D02*
X3776420Y-1064474D01*
X3776420Y-1064474D02*
X3738325Y-1064474D01*
X3738325Y-1064474D02*
X3719277Y-1073998D01*
X3719277Y-1073998D02*
X3709753Y-1083522D01*
X3709753Y-1083522D02*
X3700229Y-1102570D01*
X4052610Y-1188284D02*
X4052610Y-988284D01*
X4138325Y-1188284D02*
X4138325Y-1083522D01*
X4138325Y-1083522D02*
X4128801Y-1064474D01*
X4128801Y-1064474D02*
X4109753Y-1054950D01*
X4109753Y-1054950D02*
X4081182Y-1054950D01*
X4081182Y-1054950D02*
X4062134Y-1064474D01*
X4062134Y-1064474D02*
X4052610Y-1073998D01*
X4262134Y-1188284D02*
X4243087Y-1178760D01*
X4243087Y-1178760D02*
X4233563Y-1169236D01*
X4233563Y-1169236D02*
X4224039Y-1150189D01*
X4224039Y-1150189D02*
X4224039Y-1093046D01*
X4224039Y-1093046D02*
X4233563Y-1073998D01*
X4233563Y-1073998D02*
X4243087Y-1064474D01*
X4243087Y-1064474D02*
X4262134Y-1054950D01*
X4262134Y-1054950D02*
X4290706Y-1054950D01*
X4290706Y-1054950D02*
X4309753Y-1064474D01*
X4309753Y-1064474D02*
X4319277Y-1073998D01*
X4319277Y-1073998D02*
X4328801Y-1093046D01*
X4328801Y-1093046D02*
X4328801Y-1150189D01*
X4328801Y-1150189D02*
X4319277Y-1169236D01*
X4319277Y-1169236D02*
X4309753Y-1178760D01*
X4309753Y-1178760D02*
X4290706Y-1188284D01*
X4290706Y-1188284D02*
X4262134Y-1188284D01*
X4443087Y-1188284D02*
X4424039Y-1178760D01*
X4424039Y-1178760D02*
X4414515Y-1159712D01*
X4414515Y-1159712D02*
X4414515Y-988284D01*
X4595468Y-1178760D02*
X4576420Y-1188284D01*
X4576420Y-1188284D02*
X4538325Y-1188284D01*
X4538325Y-1188284D02*
X4519277Y-1178760D01*
X4519277Y-1178760D02*
X4509753Y-1159712D01*
X4509753Y-1159712D02*
X4509753Y-1083522D01*
X4509753Y-1083522D02*
X4519277Y-1064474D01*
X4519277Y-1064474D02*
X4538325Y-1054950D01*
X4538325Y-1054950D02*
X4576420Y-1054950D01*
X4576420Y-1054950D02*
X4595468Y-1064474D01*
X4595468Y-1064474D02*
X4604992Y-1083522D01*
X4604992Y-1083522D02*
X4604992Y-1102570D01*
X4604992Y-1102570D02*
X4509753Y-1121617D01*
X4681182Y-1178760D02*
X4700230Y-1188284D01*
X4700230Y-1188284D02*
X4738325Y-1188284D01*
X4738325Y-1188284D02*
X4757373Y-1178760D01*
X4757373Y-1178760D02*
X4766896Y-1159712D01*
X4766896Y-1159712D02*
X4766896Y-1150189D01*
X4766896Y-1150189D02*
X4757373Y-1131141D01*
X4757373Y-1131141D02*
X4738325Y-1121617D01*
X4738325Y-1121617D02*
X4709753Y-1121617D01*
X4709753Y-1121617D02*
X4690706Y-1112093D01*
X4690706Y-1112093D02*
X4681182Y-1093046D01*
X4681182Y-1093046D02*
X4681182Y-1083522D01*
X4681182Y-1083522D02*
X4690706Y-1064474D01*
X4690706Y-1064474D02*
X4709753Y-1054950D01*
X4709753Y-1054950D02*
X4738325Y-1054950D01*
X4738325Y-1054950D02*
X4757373Y-1064474D01*
X4833563Y-1264474D02*
X4843087Y-1254950D01*
X4843087Y-1254950D02*
X4862134Y-1226379D01*
X4862134Y-1226379D02*
X4871658Y-1207331D01*
X4871658Y-1207331D02*
X4881182Y-1178760D01*
X4881182Y-1178760D02*
X4890706Y-1131141D01*
X4890706Y-1131141D02*
X4890706Y-1093046D01*
X4890706Y-1093046D02*
X4881182Y-1045427D01*
X4881182Y-1045427D02*
X4871658Y-1016855D01*
X4871658Y-1016855D02*
X4862134Y-997808D01*
X4862134Y-997808D02*
X4843087Y-969236D01*
X4843087Y-969236D02*
X4833563Y-959712D01*
D14*
X39462Y-1406762D02*
X39462Y-1314838D01*
X-52462Y-1314838D01*
X-52462Y-1406762D01*
X39462Y-1406762D01*
D11*
X424039Y-1452284D02*
X309753Y-1452284D01*
X366896Y-1452284D02*
X366896Y-1252284D01*
X366896Y-1252284D02*
X347848Y-1280855D01*
X347848Y-1280855D02*
X328801Y-1299903D01*
X328801Y-1299903D02*
X309753Y-1309427D01*
X509753Y-1433236D02*
X519277Y-1442760D01*
X519277Y-1442760D02*
X509753Y-1452284D01*
X509753Y-1452284D02*
X500229Y-1442760D01*
X500229Y-1442760D02*
X509753Y-1433236D01*
X509753Y-1433236D02*
X509753Y-1452284D01*
X585944Y-1252284D02*
X709753Y-1252284D01*
X709753Y-1252284D02*
X643086Y-1328474D01*
X643086Y-1328474D02*
X671658Y-1328474D01*
X671658Y-1328474D02*
X690705Y-1337998D01*
X690705Y-1337998D02*
X700229Y-1347522D01*
X700229Y-1347522D02*
X709753Y-1366570D01*
X709753Y-1366570D02*
X709753Y-1414188D01*
X709753Y-1414188D02*
X700229Y-1433236D01*
X700229Y-1433236D02*
X690705Y-1442760D01*
X690705Y-1442760D02*
X671658Y-1452284D01*
X671658Y-1452284D02*
X614515Y-1452284D01*
X614515Y-1452284D02*
X595467Y-1442760D01*
X595467Y-1442760D02*
X585944Y-1433236D01*
X833562Y-1252284D02*
X852610Y-1252284D01*
X852610Y-1252284D02*
X871658Y-1261808D01*
X871658Y-1261808D02*
X881182Y-1271331D01*
X881182Y-1271331D02*
X890705Y-1290379D01*
X890705Y-1290379D02*
X900229Y-1328474D01*
X900229Y-1328474D02*
X900229Y-1376093D01*
X900229Y-1376093D02*
X890705Y-1414188D01*
X890705Y-1414188D02*
X881182Y-1433236D01*
X881182Y-1433236D02*
X871658Y-1442760D01*
X871658Y-1442760D02*
X852610Y-1452284D01*
X852610Y-1452284D02*
X833562Y-1452284D01*
X833562Y-1452284D02*
X814515Y-1442760D01*
X814515Y-1442760D02*
X804991Y-1433236D01*
X804991Y-1433236D02*
X795467Y-1414188D01*
X795467Y-1414188D02*
X785943Y-1376093D01*
X785943Y-1376093D02*
X785943Y-1328474D01*
X785943Y-1328474D02*
X795467Y-1290379D01*
X795467Y-1290379D02*
X804991Y-1271331D01*
X804991Y-1271331D02*
X814515Y-1261808D01*
X814515Y-1261808D02*
X833562Y-1252284D01*
X1024039Y-1252284D02*
X1043086Y-1252284D01*
X1043086Y-1252284D02*
X1062134Y-1261808D01*
X1062134Y-1261808D02*
X1071658Y-1271331D01*
X1071658Y-1271331D02*
X1081182Y-1290379D01*
X1081182Y-1290379D02*
X1090705Y-1328474D01*
X1090705Y-1328474D02*
X1090705Y-1376093D01*
X1090705Y-1376093D02*
X1081182Y-1414188D01*
X1081182Y-1414188D02*
X1071658Y-1433236D01*
X1071658Y-1433236D02*
X1062134Y-1442760D01*
X1062134Y-1442760D02*
X1043086Y-1452284D01*
X1043086Y-1452284D02*
X1024039Y-1452284D01*
X1024039Y-1452284D02*
X1004991Y-1442760D01*
X1004991Y-1442760D02*
X995467Y-1433236D01*
X995467Y-1433236D02*
X985943Y-1414188D01*
X985943Y-1414188D02*
X976420Y-1376093D01*
X976420Y-1376093D02*
X976420Y-1328474D01*
X976420Y-1328474D02*
X985943Y-1290379D01*
X985943Y-1290379D02*
X995467Y-1271331D01*
X995467Y-1271331D02*
X1004991Y-1261808D01*
X1004991Y-1261808D02*
X1024039Y-1252284D01*
X1176420Y-1452284D02*
X1176420Y-1318950D01*
X1176420Y-1337998D02*
X1185944Y-1328474D01*
X1185944Y-1328474D02*
X1204991Y-1318950D01*
X1204991Y-1318950D02*
X1233563Y-1318950D01*
X1233563Y-1318950D02*
X1252610Y-1328474D01*
X1252610Y-1328474D02*
X1262134Y-1347522D01*
X1262134Y-1347522D02*
X1262134Y-1452284D01*
X1262134Y-1347522D02*
X1271658Y-1328474D01*
X1271658Y-1328474D02*
X1290705Y-1318950D01*
X1290705Y-1318950D02*
X1319277Y-1318950D01*
X1319277Y-1318950D02*
X1338325Y-1328474D01*
X1338325Y-1328474D02*
X1347848Y-1347522D01*
X1347848Y-1347522D02*
X1347848Y-1452284D01*
X1443086Y-1452284D02*
X1443086Y-1318950D01*
X1443086Y-1337998D02*
X1452610Y-1328474D01*
X1452610Y-1328474D02*
X1471658Y-1318950D01*
X1471658Y-1318950D02*
X1500229Y-1318950D01*
X1500229Y-1318950D02*
X1519277Y-1328474D01*
X1519277Y-1328474D02*
X1528801Y-1347522D01*
X1528801Y-1347522D02*
X1528801Y-1452284D01*
X1528801Y-1347522D02*
X1538324Y-1328474D01*
X1538324Y-1328474D02*
X1557372Y-1318950D01*
X1557372Y-1318950D02*
X1585943Y-1318950D01*
X1585943Y-1318950D02*
X1604991Y-1328474D01*
X1604991Y-1328474D02*
X1614515Y-1347522D01*
X1614515Y-1347522D02*
X1614515Y-1452284D01*
X2004991Y-1242760D02*
X1833563Y-1499903D01*
X2262134Y-1252284D02*
X2281182Y-1252284D01*
X2281182Y-1252284D02*
X2300229Y-1261808D01*
X2300229Y-1261808D02*
X2309753Y-1271331D01*
X2309753Y-1271331D02*
X2319277Y-1290379D01*
X2319277Y-1290379D02*
X2328801Y-1328474D01*
X2328801Y-1328474D02*
X2328801Y-1376093D01*
X2328801Y-1376093D02*
X2319277Y-1414188D01*
X2319277Y-1414188D02*
X2309753Y-1433236D01*
X2309753Y-1433236D02*
X2300229Y-1442760D01*
X2300229Y-1442760D02*
X2281182Y-1452284D01*
X2281182Y-1452284D02*
X2262134Y-1452284D01*
X2262134Y-1452284D02*
X2243087Y-1442760D01*
X2243087Y-1442760D02*
X2233563Y-1433236D01*
X2233563Y-1433236D02*
X2224039Y-1414188D01*
X2224039Y-1414188D02*
X2214515Y-1376093D01*
X2214515Y-1376093D02*
X2214515Y-1328474D01*
X2214515Y-1328474D02*
X2224039Y-1290379D01*
X2224039Y-1290379D02*
X2233563Y-1271331D01*
X2233563Y-1271331D02*
X2243087Y-1261808D01*
X2243087Y-1261808D02*
X2262134Y-1252284D01*
X2414515Y-1433236D02*
X2424039Y-1442760D01*
X2424039Y-1442760D02*
X2414515Y-1452284D01*
X2414515Y-1452284D02*
X2404991Y-1442760D01*
X2404991Y-1442760D02*
X2414515Y-1433236D01*
X2414515Y-1433236D02*
X2414515Y-1452284D01*
X2547848Y-1252284D02*
X2566896Y-1252284D01*
X2566896Y-1252284D02*
X2585944Y-1261808D01*
X2585944Y-1261808D02*
X2595468Y-1271331D01*
X2595468Y-1271331D02*
X2604991Y-1290379D01*
X2604991Y-1290379D02*
X2614515Y-1328474D01*
X2614515Y-1328474D02*
X2614515Y-1376093D01*
X2614515Y-1376093D02*
X2604991Y-1414188D01*
X2604991Y-1414188D02*
X2595468Y-1433236D01*
X2595468Y-1433236D02*
X2585944Y-1442760D01*
X2585944Y-1442760D02*
X2566896Y-1452284D01*
X2566896Y-1452284D02*
X2547848Y-1452284D01*
X2547848Y-1452284D02*
X2528801Y-1442760D01*
X2528801Y-1442760D02*
X2519277Y-1433236D01*
X2519277Y-1433236D02*
X2509753Y-1414188D01*
X2509753Y-1414188D02*
X2500229Y-1376093D01*
X2500229Y-1376093D02*
X2500229Y-1328474D01*
X2500229Y-1328474D02*
X2509753Y-1290379D01*
X2509753Y-1290379D02*
X2519277Y-1271331D01*
X2519277Y-1271331D02*
X2528801Y-1261808D01*
X2528801Y-1261808D02*
X2547848Y-1252284D01*
X2795468Y-1252284D02*
X2700229Y-1252284D01*
X2700229Y-1252284D02*
X2690706Y-1347522D01*
X2690706Y-1347522D02*
X2700229Y-1337998D01*
X2700229Y-1337998D02*
X2719277Y-1328474D01*
X2719277Y-1328474D02*
X2766896Y-1328474D01*
X2766896Y-1328474D02*
X2785944Y-1337998D01*
X2785944Y-1337998D02*
X2795468Y-1347522D01*
X2795468Y-1347522D02*
X2804991Y-1366570D01*
X2804991Y-1366570D02*
X2804991Y-1414188D01*
X2804991Y-1414188D02*
X2795468Y-1433236D01*
X2795468Y-1433236D02*
X2785944Y-1442760D01*
X2785944Y-1442760D02*
X2766896Y-1452284D01*
X2766896Y-1452284D02*
X2719277Y-1452284D01*
X2719277Y-1452284D02*
X2700229Y-1442760D01*
X2700229Y-1442760D02*
X2690706Y-1433236D01*
X2995467Y-1452284D02*
X2881182Y-1452284D01*
X2938325Y-1452284D02*
X2938325Y-1252284D01*
X2938325Y-1252284D02*
X2919277Y-1280855D01*
X2919277Y-1280855D02*
X2900229Y-1299903D01*
X2900229Y-1299903D02*
X2881182Y-1309427D01*
X3071658Y-1271331D02*
X3081182Y-1261808D01*
X3081182Y-1261808D02*
X3100229Y-1252284D01*
X3100229Y-1252284D02*
X3147848Y-1252284D01*
X3147848Y-1252284D02*
X3166896Y-1261808D01*
X3166896Y-1261808D02*
X3176420Y-1271331D01*
X3176420Y-1271331D02*
X3185944Y-1290379D01*
X3185944Y-1290379D02*
X3185944Y-1309427D01*
X3185944Y-1309427D02*
X3176420Y-1337998D01*
X3176420Y-1337998D02*
X3062134Y-1452284D01*
X3062134Y-1452284D02*
X3185944Y-1452284D01*
X3262134Y-1252284D02*
X3262134Y-1290379D01*
X3338325Y-1252284D02*
X3338325Y-1290379D01*
X3633563Y-1528474D02*
X3624039Y-1518950D01*
X3624039Y-1518950D02*
X3604991Y-1490379D01*
X3604991Y-1490379D02*
X3595468Y-1471331D01*
X3595468Y-1471331D02*
X3585944Y-1442760D01*
X3585944Y-1442760D02*
X3576420Y-1395141D01*
X3576420Y-1395141D02*
X3576420Y-1357046D01*
X3576420Y-1357046D02*
X3585944Y-1309427D01*
X3585944Y-1309427D02*
X3595468Y-1280855D01*
X3595468Y-1280855D02*
X3604991Y-1261808D01*
X3604991Y-1261808D02*
X3624039Y-1233236D01*
X3624039Y-1233236D02*
X3633563Y-1223712D01*
X3804991Y-1252284D02*
X3709753Y-1252284D01*
X3709753Y-1252284D02*
X3700229Y-1347522D01*
X3700229Y-1347522D02*
X3709753Y-1337998D01*
X3709753Y-1337998D02*
X3728801Y-1328474D01*
X3728801Y-1328474D02*
X3776420Y-1328474D01*
X3776420Y-1328474D02*
X3795468Y-1337998D01*
X3795468Y-1337998D02*
X3804991Y-1347522D01*
X3804991Y-1347522D02*
X3814515Y-1366570D01*
X3814515Y-1366570D02*
X3814515Y-1414188D01*
X3814515Y-1414188D02*
X3804991Y-1433236D01*
X3804991Y-1433236D02*
X3795468Y-1442760D01*
X3795468Y-1442760D02*
X3776420Y-1452284D01*
X3776420Y-1452284D02*
X3728801Y-1452284D01*
X3728801Y-1452284D02*
X3709753Y-1442760D01*
X3709753Y-1442760D02*
X3700229Y-1433236D01*
X4052610Y-1452284D02*
X4052610Y-1252284D01*
X4138325Y-1452284D02*
X4138325Y-1347522D01*
X4138325Y-1347522D02*
X4128801Y-1328474D01*
X4128801Y-1328474D02*
X4109753Y-1318950D01*
X4109753Y-1318950D02*
X4081182Y-1318950D01*
X4081182Y-1318950D02*
X4062134Y-1328474D01*
X4062134Y-1328474D02*
X4052610Y-1337998D01*
X4262134Y-1452284D02*
X4243087Y-1442760D01*
X4243087Y-1442760D02*
X4233563Y-1433236D01*
X4233563Y-1433236D02*
X4224039Y-1414188D01*
X4224039Y-1414188D02*
X4224039Y-1357046D01*
X4224039Y-1357046D02*
X4233563Y-1337998D01*
X4233563Y-1337998D02*
X4243087Y-1328474D01*
X4243087Y-1328474D02*
X4262134Y-1318950D01*
X4262134Y-1318950D02*
X4290706Y-1318950D01*
X4290706Y-1318950D02*
X4309753Y-1328474D01*
X4309753Y-1328474D02*
X4319277Y-1337998D01*
X4319277Y-1337998D02*
X4328801Y-1357046D01*
X4328801Y-1357046D02*
X4328801Y-1414188D01*
X4328801Y-1414188D02*
X4319277Y-1433236D01*
X4319277Y-1433236D02*
X4309753Y-1442760D01*
X4309753Y-1442760D02*
X4290706Y-1452284D01*
X4290706Y-1452284D02*
X4262134Y-1452284D01*
X4443087Y-1452284D02*
X4424039Y-1442760D01*
X4424039Y-1442760D02*
X4414515Y-1423712D01*
X4414515Y-1423712D02*
X4414515Y-1252284D01*
X4595468Y-1442760D02*
X4576420Y-1452284D01*
X4576420Y-1452284D02*
X4538325Y-1452284D01*
X4538325Y-1452284D02*
X4519277Y-1442760D01*
X4519277Y-1442760D02*
X4509753Y-1423712D01*
X4509753Y-1423712D02*
X4509753Y-1347522D01*
X4509753Y-1347522D02*
X4519277Y-1328474D01*
X4519277Y-1328474D02*
X4538325Y-1318950D01*
X4538325Y-1318950D02*
X4576420Y-1318950D01*
X4576420Y-1318950D02*
X4595468Y-1328474D01*
X4595468Y-1328474D02*
X4604992Y-1347522D01*
X4604992Y-1347522D02*
X4604992Y-1366570D01*
X4604992Y-1366570D02*
X4509753Y-1385617D01*
X4681182Y-1442760D02*
X4700230Y-1452284D01*
X4700230Y-1452284D02*
X4738325Y-1452284D01*
X4738325Y-1452284D02*
X4757373Y-1442760D01*
X4757373Y-1442760D02*
X4766896Y-1423712D01*
X4766896Y-1423712D02*
X4766896Y-1414188D01*
X4766896Y-1414188D02*
X4757373Y-1395141D01*
X4757373Y-1395141D02*
X4738325Y-1385617D01*
X4738325Y-1385617D02*
X4709753Y-1385617D01*
X4709753Y-1385617D02*
X4690706Y-1376093D01*
X4690706Y-1376093D02*
X4681182Y-1357046D01*
X4681182Y-1357046D02*
X4681182Y-1347522D01*
X4681182Y-1347522D02*
X4690706Y-1328474D01*
X4690706Y-1328474D02*
X4709753Y-1318950D01*
X4709753Y-1318950D02*
X4738325Y-1318950D01*
X4738325Y-1318950D02*
X4757373Y-1328474D01*
X4833563Y-1528474D02*
X4843087Y-1518950D01*
X4843087Y-1518950D02*
X4862134Y-1490379D01*
X4862134Y-1490379D02*
X4871658Y-1471331D01*
X4871658Y-1471331D02*
X4881182Y-1442760D01*
X4881182Y-1442760D02*
X4890706Y-1395141D01*
X4890706Y-1395141D02*
X4890706Y-1357046D01*
X4890706Y-1357046D02*
X4881182Y-1309427D01*
X4881182Y-1309427D02*
X4871658Y-1280855D01*
X4871658Y-1280855D02*
X4862134Y-1261808D01*
X4862134Y-1261808D02*
X4843087Y-1233236D01*
X4843087Y-1233236D02*
X4833563Y-1223712D01*
X-41500Y-1724800D02*
X58500Y-1624800D01*
X-41500Y-1524800D01*
X-141500Y-1624800D01*
X-41500Y-1724800D01*
X309753Y-1535331D02*
X319277Y-1525808D01*
X319277Y-1525808D02*
X338324Y-1516284D01*
X338324Y-1516284D02*
X385943Y-1516284D01*
X385943Y-1516284D02*
X404991Y-1525808D01*
X404991Y-1525808D02*
X414515Y-1535331D01*
X414515Y-1535331D02*
X424039Y-1554379D01*
X424039Y-1554379D02*
X424039Y-1573427D01*
X424039Y-1573427D02*
X414515Y-1601998D01*
X414515Y-1601998D02*
X300229Y-1716284D01*
X300229Y-1716284D02*
X424039Y-1716284D01*
X509753Y-1697236D02*
X519277Y-1706760D01*
X519277Y-1706760D02*
X509753Y-1716284D01*
X509753Y-1716284D02*
X500229Y-1706760D01*
X500229Y-1706760D02*
X509753Y-1697236D01*
X509753Y-1697236D02*
X509753Y-1716284D01*
X585944Y-1516284D02*
X709753Y-1516284D01*
X709753Y-1516284D02*
X643086Y-1592474D01*
X643086Y-1592474D02*
X671658Y-1592474D01*
X671658Y-1592474D02*
X690705Y-1601998D01*
X690705Y-1601998D02*
X700229Y-1611522D01*
X700229Y-1611522D02*
X709753Y-1630569D01*
X709753Y-1630569D02*
X709753Y-1678188D01*
X709753Y-1678188D02*
X700229Y-1697236D01*
X700229Y-1697236D02*
X690705Y-1706760D01*
X690705Y-1706760D02*
X671658Y-1716284D01*
X671658Y-1716284D02*
X614515Y-1716284D01*
X614515Y-1716284D02*
X595467Y-1706760D01*
X595467Y-1706760D02*
X585944Y-1697236D01*
X833562Y-1516284D02*
X852610Y-1516284D01*
X852610Y-1516284D02*
X871658Y-1525808D01*
X871658Y-1525808D02*
X881182Y-1535331D01*
X881182Y-1535331D02*
X890705Y-1554379D01*
X890705Y-1554379D02*
X900229Y-1592474D01*
X900229Y-1592474D02*
X900229Y-1640093D01*
X900229Y-1640093D02*
X890705Y-1678188D01*
X890705Y-1678188D02*
X881182Y-1697236D01*
X881182Y-1697236D02*
X871658Y-1706760D01*
X871658Y-1706760D02*
X852610Y-1716284D01*
X852610Y-1716284D02*
X833562Y-1716284D01*
X833562Y-1716284D02*
X814515Y-1706760D01*
X814515Y-1706760D02*
X804991Y-1697236D01*
X804991Y-1697236D02*
X795467Y-1678188D01*
X795467Y-1678188D02*
X785943Y-1640093D01*
X785943Y-1640093D02*
X785943Y-1592474D01*
X785943Y-1592474D02*
X795467Y-1554379D01*
X795467Y-1554379D02*
X804991Y-1535331D01*
X804991Y-1535331D02*
X814515Y-1525808D01*
X814515Y-1525808D02*
X833562Y-1516284D01*
X1024039Y-1516284D02*
X1043086Y-1516284D01*
X1043086Y-1516284D02*
X1062134Y-1525808D01*
X1062134Y-1525808D02*
X1071658Y-1535331D01*
X1071658Y-1535331D02*
X1081182Y-1554379D01*
X1081182Y-1554379D02*
X1090705Y-1592474D01*
X1090705Y-1592474D02*
X1090705Y-1640093D01*
X1090705Y-1640093D02*
X1081182Y-1678188D01*
X1081182Y-1678188D02*
X1071658Y-1697236D01*
X1071658Y-1697236D02*
X1062134Y-1706760D01*
X1062134Y-1706760D02*
X1043086Y-1716284D01*
X1043086Y-1716284D02*
X1024039Y-1716284D01*
X1024039Y-1716284D02*
X1004991Y-1706760D01*
X1004991Y-1706760D02*
X995467Y-1697236D01*
X995467Y-1697236D02*
X985943Y-1678188D01*
X985943Y-1678188D02*
X976420Y-1640093D01*
X976420Y-1640093D02*
X976420Y-1592474D01*
X976420Y-1592474D02*
X985943Y-1554379D01*
X985943Y-1554379D02*
X995467Y-1535331D01*
X995467Y-1535331D02*
X1004991Y-1525808D01*
X1004991Y-1525808D02*
X1024039Y-1516284D01*
X1176420Y-1716284D02*
X1176420Y-1582950D01*
X1176420Y-1601998D02*
X1185944Y-1592474D01*
X1185944Y-1592474D02*
X1204991Y-1582950D01*
X1204991Y-1582950D02*
X1233563Y-1582950D01*
X1233563Y-1582950D02*
X1252610Y-1592474D01*
X1252610Y-1592474D02*
X1262134Y-1611522D01*
X1262134Y-1611522D02*
X1262134Y-1716284D01*
X1262134Y-1611522D02*
X1271658Y-1592474D01*
X1271658Y-1592474D02*
X1290705Y-1582950D01*
X1290705Y-1582950D02*
X1319277Y-1582950D01*
X1319277Y-1582950D02*
X1338325Y-1592474D01*
X1338325Y-1592474D02*
X1347848Y-1611522D01*
X1347848Y-1611522D02*
X1347848Y-1716284D01*
X1443086Y-1716284D02*
X1443086Y-1582950D01*
X1443086Y-1601998D02*
X1452610Y-1592474D01*
X1452610Y-1592474D02*
X1471658Y-1582950D01*
X1471658Y-1582950D02*
X1500229Y-1582950D01*
X1500229Y-1582950D02*
X1519277Y-1592474D01*
X1519277Y-1592474D02*
X1528801Y-1611522D01*
X1528801Y-1611522D02*
X1528801Y-1716284D01*
X1528801Y-1611522D02*
X1538324Y-1592474D01*
X1538324Y-1592474D02*
X1557372Y-1582950D01*
X1557372Y-1582950D02*
X1585943Y-1582950D01*
X1585943Y-1582950D02*
X1604991Y-1592474D01*
X1604991Y-1592474D02*
X1614515Y-1611522D01*
X1614515Y-1611522D02*
X1614515Y-1716284D01*
X2004991Y-1506760D02*
X1833563Y-1763903D01*
X2262134Y-1516284D02*
X2281182Y-1516284D01*
X2281182Y-1516284D02*
X2300229Y-1525808D01*
X2300229Y-1525808D02*
X2309753Y-1535331D01*
X2309753Y-1535331D02*
X2319277Y-1554379D01*
X2319277Y-1554379D02*
X2328801Y-1592474D01*
X2328801Y-1592474D02*
X2328801Y-1640093D01*
X2328801Y-1640093D02*
X2319277Y-1678188D01*
X2319277Y-1678188D02*
X2309753Y-1697236D01*
X2309753Y-1697236D02*
X2300229Y-1706760D01*
X2300229Y-1706760D02*
X2281182Y-1716284D01*
X2281182Y-1716284D02*
X2262134Y-1716284D01*
X2262134Y-1716284D02*
X2243087Y-1706760D01*
X2243087Y-1706760D02*
X2233563Y-1697236D01*
X2233563Y-1697236D02*
X2224039Y-1678188D01*
X2224039Y-1678188D02*
X2214515Y-1640093D01*
X2214515Y-1640093D02*
X2214515Y-1592474D01*
X2214515Y-1592474D02*
X2224039Y-1554379D01*
X2224039Y-1554379D02*
X2233563Y-1535331D01*
X2233563Y-1535331D02*
X2243087Y-1525808D01*
X2243087Y-1525808D02*
X2262134Y-1516284D01*
X2414515Y-1697236D02*
X2424039Y-1706760D01*
X2424039Y-1706760D02*
X2414515Y-1716284D01*
X2414515Y-1716284D02*
X2404991Y-1706760D01*
X2404991Y-1706760D02*
X2414515Y-1697236D01*
X2414515Y-1697236D02*
X2414515Y-1716284D01*
X2547848Y-1516284D02*
X2566896Y-1516284D01*
X2566896Y-1516284D02*
X2585944Y-1525808D01*
X2585944Y-1525808D02*
X2595468Y-1535331D01*
X2595468Y-1535331D02*
X2604991Y-1554379D01*
X2604991Y-1554379D02*
X2614515Y-1592474D01*
X2614515Y-1592474D02*
X2614515Y-1640093D01*
X2614515Y-1640093D02*
X2604991Y-1678188D01*
X2604991Y-1678188D02*
X2595468Y-1697236D01*
X2595468Y-1697236D02*
X2585944Y-1706760D01*
X2585944Y-1706760D02*
X2566896Y-1716284D01*
X2566896Y-1716284D02*
X2547848Y-1716284D01*
X2547848Y-1716284D02*
X2528801Y-1706760D01*
X2528801Y-1706760D02*
X2519277Y-1697236D01*
X2519277Y-1697236D02*
X2509753Y-1678188D01*
X2509753Y-1678188D02*
X2500229Y-1640093D01*
X2500229Y-1640093D02*
X2500229Y-1592474D01*
X2500229Y-1592474D02*
X2509753Y-1554379D01*
X2509753Y-1554379D02*
X2519277Y-1535331D01*
X2519277Y-1535331D02*
X2528801Y-1525808D01*
X2528801Y-1525808D02*
X2547848Y-1516284D01*
X2709753Y-1716284D02*
X2747848Y-1716284D01*
X2747848Y-1716284D02*
X2766896Y-1706760D01*
X2766896Y-1706760D02*
X2776420Y-1697236D01*
X2776420Y-1697236D02*
X2795468Y-1668665D01*
X2795468Y-1668665D02*
X2804991Y-1630569D01*
X2804991Y-1630569D02*
X2804991Y-1554379D01*
X2804991Y-1554379D02*
X2795468Y-1535331D01*
X2795468Y-1535331D02*
X2785944Y-1525808D01*
X2785944Y-1525808D02*
X2766896Y-1516284D01*
X2766896Y-1516284D02*
X2728801Y-1516284D01*
X2728801Y-1516284D02*
X2709753Y-1525808D01*
X2709753Y-1525808D02*
X2700229Y-1535331D01*
X2700229Y-1535331D02*
X2690706Y-1554379D01*
X2690706Y-1554379D02*
X2690706Y-1601998D01*
X2690706Y-1601998D02*
X2700229Y-1621046D01*
X2700229Y-1621046D02*
X2709753Y-1630569D01*
X2709753Y-1630569D02*
X2728801Y-1640093D01*
X2728801Y-1640093D02*
X2766896Y-1640093D01*
X2766896Y-1640093D02*
X2785944Y-1630569D01*
X2785944Y-1630569D02*
X2795468Y-1621046D01*
X2795468Y-1621046D02*
X2804991Y-1601998D01*
X2928801Y-1516284D02*
X2947848Y-1516284D01*
X2947848Y-1516284D02*
X2966896Y-1525808D01*
X2966896Y-1525808D02*
X2976420Y-1535331D01*
X2976420Y-1535331D02*
X2985944Y-1554379D01*
X2985944Y-1554379D02*
X2995467Y-1592474D01*
X2995467Y-1592474D02*
X2995467Y-1640093D01*
X2995467Y-1640093D02*
X2985944Y-1678188D01*
X2985944Y-1678188D02*
X2976420Y-1697236D01*
X2976420Y-1697236D02*
X2966896Y-1706760D01*
X2966896Y-1706760D02*
X2947848Y-1716284D01*
X2947848Y-1716284D02*
X2928801Y-1716284D01*
X2928801Y-1716284D02*
X2909753Y-1706760D01*
X2909753Y-1706760D02*
X2900229Y-1697236D01*
X2900229Y-1697236D02*
X2890706Y-1678188D01*
X2890706Y-1678188D02*
X2881182Y-1640093D01*
X2881182Y-1640093D02*
X2881182Y-1592474D01*
X2881182Y-1592474D02*
X2890706Y-1554379D01*
X2890706Y-1554379D02*
X2900229Y-1535331D01*
X2900229Y-1535331D02*
X2909753Y-1525808D01*
X2909753Y-1525808D02*
X2928801Y-1516284D01*
X3166896Y-1516284D02*
X3128801Y-1516284D01*
X3128801Y-1516284D02*
X3109753Y-1525808D01*
X3109753Y-1525808D02*
X3100229Y-1535331D01*
X3100229Y-1535331D02*
X3081182Y-1563903D01*
X3081182Y-1563903D02*
X3071658Y-1601998D01*
X3071658Y-1601998D02*
X3071658Y-1678188D01*
X3071658Y-1678188D02*
X3081182Y-1697236D01*
X3081182Y-1697236D02*
X3090706Y-1706760D01*
X3090706Y-1706760D02*
X3109753Y-1716284D01*
X3109753Y-1716284D02*
X3147848Y-1716284D01*
X3147848Y-1716284D02*
X3166896Y-1706760D01*
X3166896Y-1706760D02*
X3176420Y-1697236D01*
X3176420Y-1697236D02*
X3185944Y-1678188D01*
X3185944Y-1678188D02*
X3185944Y-1630569D01*
X3185944Y-1630569D02*
X3176420Y-1611522D01*
X3176420Y-1611522D02*
X3166896Y-1601998D01*
X3166896Y-1601998D02*
X3147848Y-1592474D01*
X3147848Y-1592474D02*
X3109753Y-1592474D01*
X3109753Y-1592474D02*
X3090706Y-1601998D01*
X3090706Y-1601998D02*
X3081182Y-1611522D01*
X3081182Y-1611522D02*
X3071658Y-1630569D01*
X3262134Y-1516284D02*
X3262134Y-1554379D01*
X3338325Y-1516284D02*
X3338325Y-1554379D01*
X3633563Y-1792474D02*
X3624039Y-1782950D01*
X3624039Y-1782950D02*
X3604991Y-1754379D01*
X3604991Y-1754379D02*
X3595468Y-1735331D01*
X3595468Y-1735331D02*
X3585944Y-1706760D01*
X3585944Y-1706760D02*
X3576420Y-1659141D01*
X3576420Y-1659141D02*
X3576420Y-1621046D01*
X3576420Y-1621046D02*
X3585944Y-1573427D01*
X3585944Y-1573427D02*
X3595468Y-1544855D01*
X3595468Y-1544855D02*
X3604991Y-1525808D01*
X3604991Y-1525808D02*
X3624039Y-1497236D01*
X3624039Y-1497236D02*
X3633563Y-1487712D01*
X3700229Y-1535331D02*
X3709753Y-1525808D01*
X3709753Y-1525808D02*
X3728801Y-1516284D01*
X3728801Y-1516284D02*
X3776420Y-1516284D01*
X3776420Y-1516284D02*
X3795468Y-1525808D01*
X3795468Y-1525808D02*
X3804991Y-1535331D01*
X3804991Y-1535331D02*
X3814515Y-1554379D01*
X3814515Y-1554379D02*
X3814515Y-1573427D01*
X3814515Y-1573427D02*
X3804991Y-1601998D01*
X3804991Y-1601998D02*
X3690706Y-1716284D01*
X3690706Y-1716284D02*
X3814515Y-1716284D01*
X4052610Y-1716284D02*
X4052610Y-1516284D01*
X4138325Y-1716284D02*
X4138325Y-1611522D01*
X4138325Y-1611522D02*
X4128801Y-1592474D01*
X4128801Y-1592474D02*
X4109753Y-1582950D01*
X4109753Y-1582950D02*
X4081182Y-1582950D01*
X4081182Y-1582950D02*
X4062134Y-1592474D01*
X4062134Y-1592474D02*
X4052610Y-1601998D01*
X4262134Y-1716284D02*
X4243087Y-1706760D01*
X4243087Y-1706760D02*
X4233563Y-1697236D01*
X4233563Y-1697236D02*
X4224039Y-1678188D01*
X4224039Y-1678188D02*
X4224039Y-1621046D01*
X4224039Y-1621046D02*
X4233563Y-1601998D01*
X4233563Y-1601998D02*
X4243087Y-1592474D01*
X4243087Y-1592474D02*
X4262134Y-1582950D01*
X4262134Y-1582950D02*
X4290706Y-1582950D01*
X4290706Y-1582950D02*
X4309753Y-1592474D01*
X4309753Y-1592474D02*
X4319277Y-1601998D01*
X4319277Y-1601998D02*
X4328801Y-1621046D01*
X4328801Y-1621046D02*
X4328801Y-1678188D01*
X4328801Y-1678188D02*
X4319277Y-1697236D01*
X4319277Y-1697236D02*
X4309753Y-1706760D01*
X4309753Y-1706760D02*
X4290706Y-1716284D01*
X4290706Y-1716284D02*
X4262134Y-1716284D01*
X4443087Y-1716284D02*
X4424039Y-1706760D01*
X4424039Y-1706760D02*
X4414515Y-1687712D01*
X4414515Y-1687712D02*
X4414515Y-1516284D01*
X4595468Y-1706760D02*
X4576420Y-1716284D01*
X4576420Y-1716284D02*
X4538325Y-1716284D01*
X4538325Y-1716284D02*
X4519277Y-1706760D01*
X4519277Y-1706760D02*
X4509753Y-1687712D01*
X4509753Y-1687712D02*
X4509753Y-1611522D01*
X4509753Y-1611522D02*
X4519277Y-1592474D01*
X4519277Y-1592474D02*
X4538325Y-1582950D01*
X4538325Y-1582950D02*
X4576420Y-1582950D01*
X4576420Y-1582950D02*
X4595468Y-1592474D01*
X4595468Y-1592474D02*
X4604992Y-1611522D01*
X4604992Y-1611522D02*
X4604992Y-1630569D01*
X4604992Y-1630569D02*
X4509753Y-1649617D01*
X4681182Y-1706760D02*
X4700230Y-1716284D01*
X4700230Y-1716284D02*
X4738325Y-1716284D01*
X4738325Y-1716284D02*
X4757373Y-1706760D01*
X4757373Y-1706760D02*
X4766896Y-1687712D01*
X4766896Y-1687712D02*
X4766896Y-1678188D01*
X4766896Y-1678188D02*
X4757373Y-1659141D01*
X4757373Y-1659141D02*
X4738325Y-1649617D01*
X4738325Y-1649617D02*
X4709753Y-1649617D01*
X4709753Y-1649617D02*
X4690706Y-1640093D01*
X4690706Y-1640093D02*
X4681182Y-1621046D01*
X4681182Y-1621046D02*
X4681182Y-1611522D01*
X4681182Y-1611522D02*
X4690706Y-1592474D01*
X4690706Y-1592474D02*
X4709753Y-1582950D01*
X4709753Y-1582950D02*
X4738325Y-1582950D01*
X4738325Y-1582950D02*
X4757373Y-1592474D01*
X4833563Y-1792474D02*
X4843087Y-1782950D01*
X4843087Y-1782950D02*
X4862134Y-1754379D01*
X4862134Y-1754379D02*
X4871658Y-1735331D01*
X4871658Y-1735331D02*
X4881182Y-1706760D01*
X4881182Y-1706760D02*
X4890706Y-1659141D01*
X4890706Y-1659141D02*
X4890706Y-1621046D01*
X4890706Y-1621046D02*
X4881182Y-1573427D01*
X4881182Y-1573427D02*
X4871658Y-1544855D01*
X4871658Y-1544855D02*
X4862134Y-1525808D01*
X4862134Y-1525808D02*
X4843087Y-1497236D01*
X4843087Y-1497236D02*
X4833563Y-1487712D01*
M02*
