%TF.GenerationSoftware,KiCad,Pcbnew,7.0.5*%
%TF.CreationDate,2024-02-11T15:40:35+01:00*%
%TF.ProjectId,exbike-usb-hw,65786269-6b65-42d7-9573-622d68772e6b,rev?*%
%TF.SameCoordinates,Original*%
%TF.FileFunction,Legend,Bot*%
%TF.FilePolarity,Positive*%
%FSLAX46Y46*%
G04 Gerber Fmt 4.6, Leading zero omitted, Abs format (unit mm)*
G04 Created by KiCad (PCBNEW 7.0.5) date 2024-02-11 15:40:35*
%MOMM*%
%LPD*%
G01*
G04 APERTURE LIST*
%ADD10C,0.150000*%
%ADD11C,0.120000*%
G04 APERTURE END LIST*
D10*
%TO.C,J1*%
X18016319Y3127333D02*
X18730604Y3127333D01*
X18730604Y3127333D02*
X18873461Y3174952D01*
X18873461Y3174952D02*
X18968700Y3270190D01*
X18968700Y3270190D02*
X19016319Y3413047D01*
X19016319Y3413047D02*
X19016319Y3508285D01*
X19016319Y2127333D02*
X19016319Y2698761D01*
X19016319Y2413047D02*
X18016319Y2413047D01*
X18016319Y2413047D02*
X18159176Y2508285D01*
X18159176Y2508285D02*
X18254414Y2603523D01*
X18254414Y2603523D02*
X18302033Y2698761D01*
%TO.C,J3*%
X3458333Y17565180D02*
X3458333Y16850895D01*
X3458333Y16850895D02*
X3505952Y16708038D01*
X3505952Y16708038D02*
X3601190Y16612800D01*
X3601190Y16612800D02*
X3744047Y16565180D01*
X3744047Y16565180D02*
X3839285Y16565180D01*
X3077380Y17565180D02*
X2458333Y17565180D01*
X2458333Y17565180D02*
X2791666Y17184228D01*
X2791666Y17184228D02*
X2648809Y17184228D01*
X2648809Y17184228D02*
X2553571Y17136609D01*
X2553571Y17136609D02*
X2505952Y17088990D01*
X2505952Y17088990D02*
X2458333Y16993752D01*
X2458333Y16993752D02*
X2458333Y16755657D01*
X2458333Y16755657D02*
X2505952Y16660419D01*
X2505952Y16660419D02*
X2553571Y16612800D01*
X2553571Y16612800D02*
X2648809Y16565180D01*
X2648809Y16565180D02*
X2934523Y16565180D01*
X2934523Y16565180D02*
X3029761Y16612800D01*
X3029761Y16612800D02*
X3077380Y16660419D01*
%TO.C,Y1*%
X23125128Y11298190D02*
X23601319Y11298190D01*
X22601319Y11631523D02*
X23125128Y11298190D01*
X23125128Y11298190D02*
X22601319Y10964857D01*
X23601319Y10107714D02*
X23601319Y10679142D01*
X23601319Y10393428D02*
X22601319Y10393428D01*
X22601319Y10393428D02*
X22744176Y10488666D01*
X22744176Y10488666D02*
X22839414Y10583904D01*
X22839414Y10583904D02*
X22887033Y10679142D01*
%TO.C,J2*%
X50702833Y1765180D02*
X50702833Y1050895D01*
X50702833Y1050895D02*
X50750452Y908038D01*
X50750452Y908038D02*
X50845690Y812800D01*
X50845690Y812800D02*
X50988547Y765180D01*
X50988547Y765180D02*
X51083785Y765180D01*
X50274261Y1669942D02*
X50226642Y1717561D01*
X50226642Y1717561D02*
X50131404Y1765180D01*
X50131404Y1765180D02*
X49893309Y1765180D01*
X49893309Y1765180D02*
X49798071Y1717561D01*
X49798071Y1717561D02*
X49750452Y1669942D01*
X49750452Y1669942D02*
X49702833Y1574704D01*
X49702833Y1574704D02*
X49702833Y1479466D01*
X49702833Y1479466D02*
X49750452Y1336609D01*
X49750452Y1336609D02*
X50321880Y765180D01*
X50321880Y765180D02*
X49702833Y765180D01*
D11*
%TO.C,J1*%
X34921500Y4124000D02*
X34921500Y1464000D01*
X22161500Y4124000D02*
X34921500Y4124000D01*
X22161500Y4124000D02*
X22161500Y1464000D01*
X20891500Y4124000D02*
X19561500Y4124000D01*
X19561500Y4124000D02*
X19561500Y2794000D01*
X22161500Y1464000D02*
X34921500Y1464000D01*
D10*
%TO.C,J3*%
X-2775000Y13220000D02*
X825000Y13220000D01*
X-2775000Y7020000D02*
X-2775000Y13220000D01*
X825000Y15720000D02*
X825000Y3920000D01*
X825000Y7020000D02*
X-2775000Y7020000D01*
X825000Y3920000D02*
X8575000Y3920000D01*
X4375000Y15720000D02*
X825000Y15720000D01*
D11*
X6125000Y16770000D02*
X7125000Y16770000D01*
X6625000Y16220000D02*
X6125000Y16770000D01*
X7125000Y16770000D02*
X6625000Y16220000D01*
D10*
X12625000Y15720000D02*
X8875000Y15720000D01*
X12925000Y3920000D02*
X15325000Y3920000D01*
X15325000Y15720000D02*
X15225000Y15720000D01*
X15325000Y3920000D02*
X15325000Y15720000D01*
D11*
%TO.C,Y1*%
X17096500Y7622000D02*
X17096500Y14022000D01*
X22146500Y7622000D02*
X22146500Y14022000D01*
X17096500Y7622000D02*
G75*
G03*
X22146500Y7622000I2525000J0D01*
G01*
X22146500Y14022000D02*
G75*
G03*
X17096500Y14022000I-2525000J0D01*
G01*
%TO.C,J2*%
X40819500Y9370000D02*
X41319500Y8870000D01*
X40819500Y8370000D02*
X40819500Y9370000D01*
X41319500Y8870000D02*
X40819500Y8370000D01*
X41519500Y16230000D02*
X41519500Y4010000D01*
X41519500Y16230000D02*
X45269500Y16230000D01*
X41519500Y4010000D02*
X45269500Y4010000D01*
X58139500Y16230000D02*
X50169500Y16230000D01*
X58139500Y16230000D02*
X58139500Y4010000D01*
X58139500Y4010000D02*
X50169500Y4010000D01*
%TD*%
M02*
